<mxfile host="app.diagrams.net" modified="2024-07-19T16:37:54.820Z" agent="Mozilla/5.0 (Windows NT 10.0; Win64; x64) AppleWebKit/537.36 (KHTML, like Gecko) Chrome/126.0.0.0 Safari/537.36" etag="_CWffoqz02-d7zwFRVO_" version="24.7.1" type="github">
  <diagram id="R2lEEEUBdFMjLlhIrx00" name="Page-1">
    <mxGraphModel dx="3733" dy="1573" grid="1" gridSize="10" guides="1" tooltips="1" connect="1" arrows="1" fold="1" page="1" pageScale="1" pageWidth="850" pageHeight="1100" math="0" shadow="0" extFonts="Permanent Marker^https://fonts.googleapis.com/css?family=Permanent+Marker">
      <root>
        <mxCell id="0" />
        <mxCell id="1" parent="0" />
        <mxCell id="5-_W_V20jvPb3o29qMEB-169" value="Rental" style="shape=table;startSize=20;container=1;collapsible=1;childLayout=tableLayout;fixedRows=1;rowLines=0;fontStyle=1;align=center;resizeLast=1;fillColor=#00FF00;" parent="1" vertex="1">
          <mxGeometry x="1230" y="870" width="200" height="160" as="geometry" />
        </mxCell>
        <mxCell id="5-_W_V20jvPb3o29qMEB-170" value="" style="shape=partialRectangle;collapsible=0;dropTarget=0;pointerEvents=0;fillColor=none;points=[[0,0.5],[1,0.5]];portConstraint=eastwest;top=0;left=0;right=0;bottom=1;" parent="5-_W_V20jvPb3o29qMEB-169" vertex="1">
          <mxGeometry y="20" width="200" height="20" as="geometry" />
        </mxCell>
        <mxCell id="5-_W_V20jvPb3o29qMEB-171" value="PK" style="shape=partialRectangle;overflow=hidden;connectable=0;fillColor=#636EFF;top=0;left=0;bottom=0;right=0;fontStyle=1;" parent="5-_W_V20jvPb3o29qMEB-170" vertex="1">
          <mxGeometry width="60" height="20" as="geometry">
            <mxRectangle width="60" height="20" as="alternateBounds" />
          </mxGeometry>
        </mxCell>
        <mxCell id="5-_W_V20jvPb3o29qMEB-172" value="Rental ID" style="shape=partialRectangle;overflow=hidden;connectable=0;fillColor=#636EFF;top=0;left=0;bottom=0;right=0;align=left;spacingLeft=6;fontStyle=5;" parent="5-_W_V20jvPb3o29qMEB-170" vertex="1">
          <mxGeometry x="60" width="140" height="20" as="geometry">
            <mxRectangle width="140" height="20" as="alternateBounds" />
          </mxGeometry>
        </mxCell>
        <mxCell id="5-_W_V20jvPb3o29qMEB-173" value="" style="shape=partialRectangle;collapsible=0;dropTarget=0;pointerEvents=0;fillColor=none;points=[[0,0.5],[1,0.5]];portConstraint=eastwest;top=0;left=0;right=0;bottom=0;" parent="5-_W_V20jvPb3o29qMEB-169" vertex="1">
          <mxGeometry y="40" width="200" height="50" as="geometry" />
        </mxCell>
        <mxCell id="5-_W_V20jvPb3o29qMEB-174" value="FK1&#xa;FK2&#xa;FK3" style="shape=partialRectangle;overflow=hidden;connectable=0;fillColor=#FF9933;top=0;left=0;bottom=0;right=0;" parent="5-_W_V20jvPb3o29qMEB-173" vertex="1">
          <mxGeometry width="60" height="50" as="geometry">
            <mxRectangle width="60" height="50" as="alternateBounds" />
          </mxGeometry>
        </mxCell>
        <mxCell id="5-_W_V20jvPb3o29qMEB-175" value="CustomerID&#xa;VehicleID&#xa;EmplyeeID" style="shape=partialRectangle;overflow=hidden;connectable=0;fillColor=#FF9933;top=0;left=0;bottom=0;right=0;align=left;spacingLeft=6;" parent="5-_W_V20jvPb3o29qMEB-173" vertex="1">
          <mxGeometry x="60" width="140" height="50" as="geometry">
            <mxRectangle width="140" height="50" as="alternateBounds" />
          </mxGeometry>
        </mxCell>
        <mxCell id="5-_W_V20jvPb3o29qMEB-176" value="" style="shape=partialRectangle;collapsible=0;dropTarget=0;pointerEvents=0;fillColor=none;points=[[0,0.5],[1,0.5]];portConstraint=eastwest;top=0;left=0;right=0;bottom=0;" parent="5-_W_V20jvPb3o29qMEB-169" vertex="1">
          <mxGeometry y="90" width="200" height="70" as="geometry" />
        </mxCell>
        <mxCell id="5-_W_V20jvPb3o29qMEB-177" value="Other &#xa;Attributes" style="shape=partialRectangle;overflow=hidden;connectable=0;fillColor=none;top=0;left=0;bottom=0;right=0;" parent="5-_W_V20jvPb3o29qMEB-176" vertex="1">
          <mxGeometry width="60" height="70" as="geometry">
            <mxRectangle width="60" height="70" as="alternateBounds" />
          </mxGeometry>
        </mxCell>
        <mxCell id="5-_W_V20jvPb3o29qMEB-178" value="- Start Date &amp; Time&#xa;- End Date &amp; Time &#xa;- Contract&#xa;- Total Cost" style="shape=partialRectangle;overflow=hidden;connectable=0;fillColor=none;top=0;left=0;bottom=0;right=0;align=left;spacingLeft=6;" parent="5-_W_V20jvPb3o29qMEB-176" vertex="1">
          <mxGeometry x="60" width="140" height="70" as="geometry">
            <mxRectangle width="140" height="70" as="alternateBounds" />
          </mxGeometry>
        </mxCell>
        <mxCell id="5-_W_V20jvPb3o29qMEB-179" value="" style="endArrow=none;html=1;rounded=0;entryX=0.998;entryY=0;entryDx=0;entryDy=0;entryPerimeter=0;exitX=0;exitY=0;exitDx=0;exitDy=0;exitPerimeter=0;" parent="5-_W_V20jvPb3o29qMEB-169" source="5-_W_V20jvPb3o29qMEB-176" target="5-_W_V20jvPb3o29qMEB-176" edge="1">
          <mxGeometry width="50" height="50" relative="1" as="geometry">
            <mxPoint y="108" as="sourcePoint" />
            <mxPoint x="240" y="100" as="targetPoint" />
          </mxGeometry>
        </mxCell>
        <mxCell id="5-_W_V20jvPb3o29qMEB-180" value="" style="shape=link;html=1;rounded=0;exitX=0.497;exitY=1.051;exitDx=0;exitDy=0;exitPerimeter=0;width=-9.25925925925926;" parent="1" edge="1">
          <mxGeometry width="100" relative="1" as="geometry">
            <mxPoint x="1329.7800000000002" y="1030" as="sourcePoint" />
            <mxPoint x="1329.7200000000003" y="1060" as="targetPoint" />
          </mxGeometry>
        </mxCell>
        <mxCell id="5-_W_V20jvPb3o29qMEB-181" value="d" style="ellipse;whiteSpace=wrap;html=1;aspect=fixed;" parent="1" vertex="1">
          <mxGeometry x="1320" y="1050" width="20" height="20" as="geometry" />
        </mxCell>
        <mxCell id="5-_W_V20jvPb3o29qMEB-182" value="Long Term" style="shape=table;startSize=19;container=1;collapsible=1;childLayout=tableLayout;fixedRows=1;rowLines=0;fontStyle=0;align=center;resizeLast=1;fillColor=#CC99FF;" parent="1" vertex="1">
          <mxGeometry x="1110" y="1110" width="200" height="100" as="geometry" />
        </mxCell>
        <mxCell id="5-_W_V20jvPb3o29qMEB-183" value="" style="shape=partialRectangle;collapsible=0;dropTarget=0;pointerEvents=0;fillColor=none;points=[[0,0.5],[1,0.5]];portConstraint=eastwest;top=0;left=0;right=0;bottom=1;" parent="5-_W_V20jvPb3o29qMEB-182" vertex="1">
          <mxGeometry y="19" width="200" height="20" as="geometry" />
        </mxCell>
        <mxCell id="5-_W_V20jvPb3o29qMEB-184" value="PK" style="shape=partialRectangle;overflow=hidden;connectable=0;fillColor=#636EFF;top=0;left=0;bottom=0;right=0;fontStyle=1;" parent="5-_W_V20jvPb3o29qMEB-183" vertex="1">
          <mxGeometry width="60" height="20" as="geometry">
            <mxRectangle width="60" height="20" as="alternateBounds" />
          </mxGeometry>
        </mxCell>
        <mxCell id="5-_W_V20jvPb3o29qMEB-185" value="LongTermID" style="shape=partialRectangle;overflow=hidden;connectable=0;fillColor=#636EFF;top=0;left=0;bottom=0;right=0;align=left;spacingLeft=6;fontStyle=5;" parent="5-_W_V20jvPb3o29qMEB-183" vertex="1">
          <mxGeometry x="60" width="140" height="20" as="geometry">
            <mxRectangle width="140" height="20" as="alternateBounds" />
          </mxGeometry>
        </mxCell>
        <mxCell id="5-_W_V20jvPb3o29qMEB-186" value="" style="shape=partialRectangle;collapsible=0;dropTarget=0;pointerEvents=0;fillColor=none;points=[[0,0.5],[1,0.5]];portConstraint=eastwest;top=0;left=0;right=0;bottom=0;" parent="5-_W_V20jvPb3o29qMEB-182" vertex="1">
          <mxGeometry y="39" width="200" height="61" as="geometry" />
        </mxCell>
        <mxCell id="5-_W_V20jvPb3o29qMEB-187" value="Other &#xa;Attributes" style="shape=partialRectangle;overflow=hidden;connectable=0;fillColor=none;top=0;left=0;bottom=0;right=0;" parent="5-_W_V20jvPb3o29qMEB-186" vertex="1">
          <mxGeometry width="60" height="61" as="geometry">
            <mxRectangle width="60" height="61" as="alternateBounds" />
          </mxGeometry>
        </mxCell>
        <mxCell id="5-_W_V20jvPb3o29qMEB-188" value="- Weekly &#xa;(Minimum of a week)" style="shape=partialRectangle;overflow=hidden;connectable=0;fillColor=none;top=0;left=0;bottom=0;right=0;align=left;spacingLeft=6;" parent="5-_W_V20jvPb3o29qMEB-186" vertex="1">
          <mxGeometry x="60" width="140" height="61" as="geometry">
            <mxRectangle width="140" height="61" as="alternateBounds" />
          </mxGeometry>
        </mxCell>
        <mxCell id="5-_W_V20jvPb3o29qMEB-189" value="Short Term" style="shape=table;startSize=19;container=1;collapsible=1;childLayout=tableLayout;fixedRows=1;rowLines=0;fontStyle=0;align=center;resizeLast=1;fillColor=#CC99FF;" parent="1" vertex="1">
          <mxGeometry x="1350" y="1110" width="200" height="100" as="geometry" />
        </mxCell>
        <mxCell id="5-_W_V20jvPb3o29qMEB-190" value="" style="shape=partialRectangle;collapsible=0;dropTarget=0;pointerEvents=0;fillColor=none;points=[[0,0.5],[1,0.5]];portConstraint=eastwest;top=0;left=0;right=0;bottom=1;" parent="5-_W_V20jvPb3o29qMEB-189" vertex="1">
          <mxGeometry y="19" width="200" height="20" as="geometry" />
        </mxCell>
        <mxCell id="5-_W_V20jvPb3o29qMEB-191" value="PK" style="shape=partialRectangle;overflow=hidden;connectable=0;fillColor=#636EFF;top=0;left=0;bottom=0;right=0;fontStyle=1;" parent="5-_W_V20jvPb3o29qMEB-190" vertex="1">
          <mxGeometry width="60" height="20" as="geometry">
            <mxRectangle width="60" height="20" as="alternateBounds" />
          </mxGeometry>
        </mxCell>
        <mxCell id="5-_W_V20jvPb3o29qMEB-192" value="ShortTermID" style="shape=partialRectangle;overflow=hidden;connectable=0;fillColor=#636EFF;top=0;left=0;bottom=0;right=0;align=left;spacingLeft=6;fontStyle=5;" parent="5-_W_V20jvPb3o29qMEB-190" vertex="1">
          <mxGeometry x="60" width="140" height="20" as="geometry">
            <mxRectangle width="140" height="20" as="alternateBounds" />
          </mxGeometry>
        </mxCell>
        <mxCell id="5-_W_V20jvPb3o29qMEB-193" value="" style="shape=partialRectangle;collapsible=0;dropTarget=0;pointerEvents=0;fillColor=none;points=[[0,0.5],[1,0.5]];portConstraint=eastwest;top=0;left=0;right=0;bottom=0;" parent="5-_W_V20jvPb3o29qMEB-189" vertex="1">
          <mxGeometry y="39" width="200" height="61" as="geometry" />
        </mxCell>
        <mxCell id="5-_W_V20jvPb3o29qMEB-194" value="Other &#xa;Attributes" style="shape=partialRectangle;overflow=hidden;connectable=0;fillColor=none;top=0;left=0;bottom=0;right=0;" parent="5-_W_V20jvPb3o29qMEB-193" vertex="1">
          <mxGeometry width="60" height="61" as="geometry">
            <mxRectangle width="60" height="61" as="alternateBounds" />
          </mxGeometry>
        </mxCell>
        <mxCell id="5-_W_V20jvPb3o29qMEB-195" value="- Daily&#xa;(Day-to-Day)" style="shape=partialRectangle;overflow=hidden;connectable=0;fillColor=none;top=0;left=0;bottom=0;right=0;align=left;spacingLeft=6;" parent="5-_W_V20jvPb3o29qMEB-193" vertex="1">
          <mxGeometry x="60" width="140" height="61" as="geometry">
            <mxRectangle width="140" height="61" as="alternateBounds" />
          </mxGeometry>
        </mxCell>
        <mxCell id="5-_W_V20jvPb3o29qMEB-196" value="" style="endArrow=none;html=1;rounded=0;entryX=1;entryY=0.5;entryDx=0;entryDy=0;exitX=0.198;exitY=-0.001;exitDx=0;exitDy=0;exitPerimeter=0;" parent="1" source="5-_W_V20jvPb3o29qMEB-189" target="5-_W_V20jvPb3o29qMEB-181" edge="1">
          <mxGeometry width="50" height="50" relative="1" as="geometry">
            <mxPoint x="1390" y="1111" as="sourcePoint" />
            <mxPoint x="1430" y="1050" as="targetPoint" />
          </mxGeometry>
        </mxCell>
        <mxCell id="5-_W_V20jvPb3o29qMEB-197" value="" style="endArrow=none;html=1;rounded=0;" parent="1" edge="1">
          <mxGeometry width="50" height="50" relative="1" as="geometry">
            <mxPoint x="1270" y="1110" as="sourcePoint" />
            <mxPoint x="1320" y="1060" as="targetPoint" />
          </mxGeometry>
        </mxCell>
        <mxCell id="5-_W_V20jvPb3o29qMEB-198" value="Vehicle" style="shape=table;startSize=20;container=1;collapsible=1;childLayout=tableLayout;fixedRows=1;rowLines=0;fontStyle=1;align=center;resizeLast=1;fillColor=#00FF00;" parent="1" vertex="1">
          <mxGeometry x="1790" y="630" width="200" height="160" as="geometry" />
        </mxCell>
        <mxCell id="5-_W_V20jvPb3o29qMEB-199" value="" style="shape=partialRectangle;collapsible=0;dropTarget=0;pointerEvents=0;fillColor=none;points=[[0,0.5],[1,0.5]];portConstraint=eastwest;top=0;left=0;right=0;bottom=1;" parent="5-_W_V20jvPb3o29qMEB-198" vertex="1">
          <mxGeometry y="20" width="200" height="20" as="geometry" />
        </mxCell>
        <mxCell id="5-_W_V20jvPb3o29qMEB-200" value="PK" style="shape=partialRectangle;overflow=hidden;connectable=0;fillColor=#636EFF;top=0;left=0;bottom=0;right=0;fontStyle=1;" parent="5-_W_V20jvPb3o29qMEB-199" vertex="1">
          <mxGeometry width="60" height="20" as="geometry">
            <mxRectangle width="60" height="20" as="alternateBounds" />
          </mxGeometry>
        </mxCell>
        <mxCell id="5-_W_V20jvPb3o29qMEB-201" value="VehicleID" style="shape=partialRectangle;overflow=hidden;connectable=0;fillColor=#636EFF;top=0;left=0;bottom=0;right=0;align=left;spacingLeft=6;fontStyle=5;" parent="5-_W_V20jvPb3o29qMEB-199" vertex="1">
          <mxGeometry x="60" width="140" height="20" as="geometry">
            <mxRectangle width="140" height="20" as="alternateBounds" />
          </mxGeometry>
        </mxCell>
        <mxCell id="5-_W_V20jvPb3o29qMEB-202" value="" style="shape=partialRectangle;collapsible=0;dropTarget=0;pointerEvents=0;fillColor=none;points=[[0,0.5],[1,0.5]];portConstraint=eastwest;top=0;left=0;right=0;bottom=0;" parent="5-_W_V20jvPb3o29qMEB-198" vertex="1">
          <mxGeometry y="40" width="200" height="20" as="geometry" />
        </mxCell>
        <mxCell id="5-_W_V20jvPb3o29qMEB-203" value="FK1" style="shape=partialRectangle;overflow=hidden;connectable=0;fillColor=#FF9933;top=0;left=0;bottom=0;right=0;" parent="5-_W_V20jvPb3o29qMEB-202" vertex="1">
          <mxGeometry width="60" height="20" as="geometry">
            <mxRectangle width="60" height="20" as="alternateBounds" />
          </mxGeometry>
        </mxCell>
        <mxCell id="5-_W_V20jvPb3o29qMEB-204" value="BranchID" style="shape=partialRectangle;overflow=hidden;connectable=0;fillColor=#FF9933;top=0;left=0;bottom=0;right=0;align=left;spacingLeft=6;" parent="5-_W_V20jvPb3o29qMEB-202" vertex="1">
          <mxGeometry x="60" width="140" height="20" as="geometry">
            <mxRectangle width="140" height="20" as="alternateBounds" />
          </mxGeometry>
        </mxCell>
        <mxCell id="5-_W_V20jvPb3o29qMEB-205" value="" style="shape=partialRectangle;collapsible=0;dropTarget=0;pointerEvents=0;fillColor=none;points=[[0,0.5],[1,0.5]];portConstraint=eastwest;top=0;left=0;right=0;bottom=0;" parent="5-_W_V20jvPb3o29qMEB-198" vertex="1">
          <mxGeometry y="60" width="200" height="100" as="geometry" />
        </mxCell>
        <mxCell id="5-_W_V20jvPb3o29qMEB-206" value="Other &#xa;Attributes" style="shape=partialRectangle;overflow=hidden;connectable=0;fillColor=none;top=0;left=0;bottom=0;right=0;" parent="5-_W_V20jvPb3o29qMEB-205" vertex="1">
          <mxGeometry width="60" height="100" as="geometry">
            <mxRectangle width="60" height="100" as="alternateBounds" />
          </mxGeometry>
        </mxCell>
        <mxCell id="5-_W_V20jvPb3o29qMEB-207" value="- License Plate&#xa;- Model&#xa;- Make&#xa;- Year&#xa;- VIN" style="shape=partialRectangle;overflow=hidden;connectable=0;fillColor=none;top=0;left=0;bottom=0;right=0;align=left;spacingLeft=6;" parent="5-_W_V20jvPb3o29qMEB-205" vertex="1">
          <mxGeometry x="60" width="140" height="100" as="geometry">
            <mxRectangle width="140" height="100" as="alternateBounds" />
          </mxGeometry>
        </mxCell>
        <mxCell id="5-_W_V20jvPb3o29qMEB-208" value="" style="endArrow=none;html=1;rounded=0;entryX=0.998;entryY=0;entryDx=0;entryDy=0;entryPerimeter=0;exitX=0;exitY=0;exitDx=0;exitDy=0;exitPerimeter=0;" parent="5-_W_V20jvPb3o29qMEB-198" source="5-_W_V20jvPb3o29qMEB-205" target="5-_W_V20jvPb3o29qMEB-205" edge="1">
          <mxGeometry width="50" height="50" relative="1" as="geometry">
            <mxPoint y="108" as="sourcePoint" />
            <mxPoint x="240" y="100" as="targetPoint" />
          </mxGeometry>
        </mxCell>
        <mxCell id="5-_W_V20jvPb3o29qMEB-209" value="" style="shape=link;html=1;rounded=0;exitX=0.497;exitY=1.051;exitDx=0;exitDy=0;exitPerimeter=0;width=-9.25925925925926;" parent="1" edge="1">
          <mxGeometry width="100" relative="1" as="geometry">
            <mxPoint x="1889.7800000000002" y="790" as="sourcePoint" />
            <mxPoint x="1889.7200000000003" y="820" as="targetPoint" />
          </mxGeometry>
        </mxCell>
        <mxCell id="5-_W_V20jvPb3o29qMEB-210" value="d" style="ellipse;whiteSpace=wrap;html=1;aspect=fixed;" parent="1" vertex="1">
          <mxGeometry x="1880" y="810" width="20" height="20" as="geometry" />
        </mxCell>
        <mxCell id="5-_W_V20jvPb3o29qMEB-211" value="Car" style="shape=table;startSize=20;container=1;collapsible=1;childLayout=tableLayout;fixedRows=1;rowLines=0;fontStyle=0;align=center;resizeLast=1;fillColor=#CC99FF;" parent="1" vertex="1">
          <mxGeometry x="1550" y="870" width="200" height="100" as="geometry" />
        </mxCell>
        <mxCell id="5-_W_V20jvPb3o29qMEB-212" value="" style="shape=partialRectangle;collapsible=0;dropTarget=0;pointerEvents=0;fillColor=none;points=[[0,0.5],[1,0.5]];portConstraint=eastwest;top=0;left=0;right=0;bottom=1;" parent="5-_W_V20jvPb3o29qMEB-211" vertex="1">
          <mxGeometry y="20" width="200" height="20" as="geometry" />
        </mxCell>
        <mxCell id="5-_W_V20jvPb3o29qMEB-213" value="PK" style="shape=partialRectangle;overflow=hidden;connectable=0;fillColor=#636EFF;top=0;left=0;bottom=0;right=0;fontStyle=1;" parent="5-_W_V20jvPb3o29qMEB-212" vertex="1">
          <mxGeometry width="60" height="20" as="geometry">
            <mxRectangle width="60" height="20" as="alternateBounds" />
          </mxGeometry>
        </mxCell>
        <mxCell id="5-_W_V20jvPb3o29qMEB-214" value="CarID" style="shape=partialRectangle;overflow=hidden;connectable=0;fillColor=#636EFF;top=0;left=0;bottom=0;right=0;align=left;spacingLeft=6;fontStyle=5;" parent="5-_W_V20jvPb3o29qMEB-212" vertex="1">
          <mxGeometry x="60" width="140" height="20" as="geometry">
            <mxRectangle width="140" height="20" as="alternateBounds" />
          </mxGeometry>
        </mxCell>
        <mxCell id="5-_W_V20jvPb3o29qMEB-215" value="" style="shape=partialRectangle;collapsible=0;dropTarget=0;pointerEvents=0;fillColor=none;points=[[0,0.5],[1,0.5]];portConstraint=eastwest;top=0;left=0;right=0;bottom=0;" parent="5-_W_V20jvPb3o29qMEB-211" vertex="1">
          <mxGeometry y="40" width="200" height="60" as="geometry" />
        </mxCell>
        <mxCell id="5-_W_V20jvPb3o29qMEB-216" value="Other &#xa;Attributes" style="shape=partialRectangle;overflow=hidden;connectable=0;fillColor=none;top=0;left=0;bottom=0;right=0;" parent="5-_W_V20jvPb3o29qMEB-215" vertex="1">
          <mxGeometry width="60" height="60" as="geometry">
            <mxRectangle width="60" height="60" as="alternateBounds" />
          </mxGeometry>
        </mxCell>
        <mxCell id="5-_W_V20jvPb3o29qMEB-217" value="- Cargo Capacity" style="shape=partialRectangle;overflow=hidden;connectable=0;fillColor=none;top=0;left=0;bottom=0;right=0;align=left;spacingLeft=6;" parent="5-_W_V20jvPb3o29qMEB-215" vertex="1">
          <mxGeometry x="60" width="140" height="60" as="geometry">
            <mxRectangle width="140" height="60" as="alternateBounds" />
          </mxGeometry>
        </mxCell>
        <mxCell id="5-_W_V20jvPb3o29qMEB-218" value="Motorbike" style="shape=table;startSize=19;container=1;collapsible=1;childLayout=tableLayout;fixedRows=1;rowLines=0;fontStyle=0;align=center;resizeLast=1;fillColor=#CC99FF;" parent="1" vertex="1">
          <mxGeometry x="2030" y="870" width="200" height="100" as="geometry" />
        </mxCell>
        <mxCell id="5-_W_V20jvPb3o29qMEB-219" value="" style="shape=partialRectangle;collapsible=0;dropTarget=0;pointerEvents=0;fillColor=none;points=[[0,0.5],[1,0.5]];portConstraint=eastwest;top=0;left=0;right=0;bottom=1;" parent="5-_W_V20jvPb3o29qMEB-218" vertex="1">
          <mxGeometry y="19" width="200" height="30" as="geometry" />
        </mxCell>
        <mxCell id="5-_W_V20jvPb3o29qMEB-220" value="PK" style="shape=partialRectangle;overflow=hidden;connectable=0;fillColor=#636EFF;top=0;left=0;bottom=0;right=0;fontStyle=1;" parent="5-_W_V20jvPb3o29qMEB-219" vertex="1">
          <mxGeometry width="60" height="30" as="geometry">
            <mxRectangle width="60" height="30" as="alternateBounds" />
          </mxGeometry>
        </mxCell>
        <mxCell id="5-_W_V20jvPb3o29qMEB-221" value="MotorbikeID" style="shape=partialRectangle;overflow=hidden;connectable=0;fillColor=#636EFF;top=0;left=0;bottom=0;right=0;align=left;spacingLeft=6;fontStyle=5;" parent="5-_W_V20jvPb3o29qMEB-219" vertex="1">
          <mxGeometry x="60" width="140" height="30" as="geometry">
            <mxRectangle width="140" height="30" as="alternateBounds" />
          </mxGeometry>
        </mxCell>
        <mxCell id="5-_W_V20jvPb3o29qMEB-222" value="" style="shape=partialRectangle;collapsible=0;dropTarget=0;pointerEvents=0;fillColor=none;points=[[0,0.5],[1,0.5]];portConstraint=eastwest;top=0;left=0;right=0;bottom=0;" parent="5-_W_V20jvPb3o29qMEB-218" vertex="1">
          <mxGeometry y="49" width="200" height="51" as="geometry" />
        </mxCell>
        <mxCell id="5-_W_V20jvPb3o29qMEB-223" value="Other &#xa;Attributes" style="shape=partialRectangle;overflow=hidden;connectable=0;fillColor=none;top=0;left=0;bottom=0;right=0;" parent="5-_W_V20jvPb3o29qMEB-222" vertex="1">
          <mxGeometry width="60" height="51" as="geometry">
            <mxRectangle width="60" height="51" as="alternateBounds" />
          </mxGeometry>
        </mxCell>
        <mxCell id="5-_W_V20jvPb3o29qMEB-224" value="- Dual Wheel" style="shape=partialRectangle;overflow=hidden;connectable=0;fillColor=none;top=0;left=0;bottom=0;right=0;align=left;spacingLeft=6;" parent="5-_W_V20jvPb3o29qMEB-222" vertex="1">
          <mxGeometry x="60" width="140" height="51" as="geometry">
            <mxRectangle width="140" height="51" as="alternateBounds" />
          </mxGeometry>
        </mxCell>
        <mxCell id="5-_W_V20jvPb3o29qMEB-226" value="" style="endArrow=none;html=1;rounded=0;entryX=0;entryY=0.5;entryDx=0;entryDy=0;exitX=0.801;exitY=0.001;exitDx=0;exitDy=0;exitPerimeter=0;" parent="1" source="5-_W_V20jvPb3o29qMEB-211" target="5-_W_V20jvPb3o29qMEB-210" edge="1">
          <mxGeometry width="50" height="50" relative="1" as="geometry">
            <mxPoint x="1670" y="870" as="sourcePoint" />
            <mxPoint x="1720" y="820" as="targetPoint" />
            <Array as="points" />
          </mxGeometry>
        </mxCell>
        <mxCell id="5-_W_V20jvPb3o29qMEB-227" value="Truck" style="shape=table;startSize=20;container=1;collapsible=1;childLayout=tableLayout;fixedRows=1;rowLines=0;fontStyle=0;align=center;resizeLast=1;fillColor=#CC99FF;" parent="1" vertex="1">
          <mxGeometry x="1790" y="870" width="200" height="100" as="geometry" />
        </mxCell>
        <mxCell id="5-_W_V20jvPb3o29qMEB-228" value="" style="shape=partialRectangle;collapsible=0;dropTarget=0;pointerEvents=0;fillColor=none;points=[[0,0.5],[1,0.5]];portConstraint=eastwest;top=0;left=0;right=0;bottom=1;" parent="5-_W_V20jvPb3o29qMEB-227" vertex="1">
          <mxGeometry y="20" width="200" height="20" as="geometry" />
        </mxCell>
        <mxCell id="5-_W_V20jvPb3o29qMEB-229" value="PK" style="shape=partialRectangle;overflow=hidden;connectable=0;fillColor=#636EFF;top=0;left=0;bottom=0;right=0;fontStyle=1;" parent="5-_W_V20jvPb3o29qMEB-228" vertex="1">
          <mxGeometry width="60" height="20" as="geometry">
            <mxRectangle width="60" height="20" as="alternateBounds" />
          </mxGeometry>
        </mxCell>
        <mxCell id="5-_W_V20jvPb3o29qMEB-230" value="TruckID" style="shape=partialRectangle;overflow=hidden;connectable=0;fillColor=#636EFF;top=0;left=0;bottom=0;right=0;align=left;spacingLeft=6;fontStyle=5;" parent="5-_W_V20jvPb3o29qMEB-228" vertex="1">
          <mxGeometry x="60" width="140" height="20" as="geometry">
            <mxRectangle width="140" height="20" as="alternateBounds" />
          </mxGeometry>
        </mxCell>
        <mxCell id="5-_W_V20jvPb3o29qMEB-231" value="" style="shape=partialRectangle;collapsible=0;dropTarget=0;pointerEvents=0;fillColor=none;points=[[0,0.5],[1,0.5]];portConstraint=eastwest;top=0;left=0;right=0;bottom=0;" parent="5-_W_V20jvPb3o29qMEB-227" vertex="1">
          <mxGeometry y="40" width="200" height="60" as="geometry" />
        </mxCell>
        <mxCell id="5-_W_V20jvPb3o29qMEB-232" value="Other &#xa;Attributes" style="shape=partialRectangle;overflow=hidden;connectable=0;fillColor=none;top=0;left=0;bottom=0;right=0;" parent="5-_W_V20jvPb3o29qMEB-231" vertex="1">
          <mxGeometry width="60" height="60" as="geometry">
            <mxRectangle width="60" height="60" as="alternateBounds" />
          </mxGeometry>
        </mxCell>
        <mxCell id="5-_W_V20jvPb3o29qMEB-233" value="- Towing Capacity" style="shape=partialRectangle;overflow=hidden;connectable=0;fillColor=none;top=0;left=0;bottom=0;right=0;align=left;spacingLeft=6;" parent="5-_W_V20jvPb3o29qMEB-231" vertex="1">
          <mxGeometry x="60" width="140" height="60" as="geometry">
            <mxRectangle width="140" height="60" as="alternateBounds" />
          </mxGeometry>
        </mxCell>
        <mxCell id="5-_W_V20jvPb3o29qMEB-234" value="" style="endArrow=none;html=1;rounded=0;entryX=0.199;entryY=0.001;entryDx=0;entryDy=0;exitX=0.801;exitY=0.001;exitDx=0;exitDy=0;exitPerimeter=0;entryPerimeter=0;" parent="1" target="5-_W_V20jvPb3o29qMEB-218" edge="1">
          <mxGeometry width="50" height="50" relative="1" as="geometry">
            <mxPoint x="1900" y="820" as="sourcePoint" />
            <mxPoint x="2070" y="770" as="targetPoint" />
            <Array as="points" />
          </mxGeometry>
        </mxCell>
        <mxCell id="5-_W_V20jvPb3o29qMEB-235" value="" style="endArrow=none;html=1;rounded=0;entryX=1;entryY=0.5;entryDx=0;entryDy=0;exitX=0.5;exitY=0;exitDx=0;exitDy=0;" parent="1" source="5-_W_V20jvPb3o29qMEB-227" edge="1">
          <mxGeometry width="50" height="50" relative="1" as="geometry">
            <mxPoint x="1940" y="880" as="sourcePoint" />
            <mxPoint x="1890" y="830" as="targetPoint" />
          </mxGeometry>
        </mxCell>
        <mxCell id="5-_W_V20jvPb3o29qMEB-236" value="Person" style="shape=table;startSize=20;container=1;collapsible=1;childLayout=tableLayout;fixedRows=1;rowLines=0;fontStyle=1;align=center;resizeLast=1;fillColor=#00FF00;" parent="1" vertex="1">
          <mxGeometry x="790" y="1110" width="200" height="160" as="geometry" />
        </mxCell>
        <mxCell id="5-_W_V20jvPb3o29qMEB-237" value="" style="shape=partialRectangle;collapsible=0;dropTarget=0;pointerEvents=0;fillColor=none;points=[[0,0.5],[1,0.5]];portConstraint=eastwest;top=0;left=0;right=0;bottom=1;" parent="5-_W_V20jvPb3o29qMEB-236" vertex="1">
          <mxGeometry y="20" width="200" height="20" as="geometry" />
        </mxCell>
        <mxCell id="5-_W_V20jvPb3o29qMEB-238" value="PK" style="shape=partialRectangle;overflow=hidden;connectable=0;fillColor=#636EFF;top=0;left=0;bottom=0;right=0;fontStyle=1;" parent="5-_W_V20jvPb3o29qMEB-237" vertex="1">
          <mxGeometry width="60" height="20" as="geometry">
            <mxRectangle width="60" height="20" as="alternateBounds" />
          </mxGeometry>
        </mxCell>
        <mxCell id="5-_W_V20jvPb3o29qMEB-239" value="PersonID" style="shape=partialRectangle;overflow=hidden;connectable=0;fillColor=#636EFF;top=0;left=0;bottom=0;right=0;align=left;spacingLeft=6;fontStyle=5;" parent="5-_W_V20jvPb3o29qMEB-237" vertex="1">
          <mxGeometry x="60" width="140" height="20" as="geometry">
            <mxRectangle width="140" height="20" as="alternateBounds" />
          </mxGeometry>
        </mxCell>
        <mxCell id="5-_W_V20jvPb3o29qMEB-243" value="" style="shape=partialRectangle;collapsible=0;dropTarget=0;pointerEvents=0;fillColor=none;points=[[0,0.5],[1,0.5]];portConstraint=eastwest;top=0;left=0;right=0;bottom=0;" parent="5-_W_V20jvPb3o29qMEB-236" vertex="1">
          <mxGeometry y="40" width="200" height="120" as="geometry" />
        </mxCell>
        <mxCell id="5-_W_V20jvPb3o29qMEB-244" value="Other &#xa;Attributes" style="shape=partialRectangle;overflow=hidden;connectable=0;fillColor=none;top=0;left=0;bottom=0;right=0;" parent="5-_W_V20jvPb3o29qMEB-243" vertex="1">
          <mxGeometry width="60" height="120" as="geometry">
            <mxRectangle width="60" height="120" as="alternateBounds" />
          </mxGeometry>
        </mxCell>
        <mxCell id="5-_W_V20jvPb3o29qMEB-245" value="- Name&#xa;- Address&#xa;- SSN&#xa;- Email&#xa;- Phone Number" style="shape=partialRectangle;overflow=hidden;connectable=0;fillColor=none;top=0;left=0;bottom=0;right=0;align=left;spacingLeft=6;" parent="5-_W_V20jvPb3o29qMEB-243" vertex="1">
          <mxGeometry x="60" width="140" height="120" as="geometry">
            <mxRectangle width="140" height="120" as="alternateBounds" />
          </mxGeometry>
        </mxCell>
        <mxCell id="5-_W_V20jvPb3o29qMEB-246" value="" style="endArrow=none;html=1;rounded=0;entryX=0.998;entryY=0;entryDx=0;entryDy=0;entryPerimeter=0;exitX=0;exitY=0;exitDx=0;exitDy=0;exitPerimeter=0;" parent="5-_W_V20jvPb3o29qMEB-236" source="5-_W_V20jvPb3o29qMEB-243" target="5-_W_V20jvPb3o29qMEB-243" edge="1">
          <mxGeometry width="50" height="50" relative="1" as="geometry">
            <mxPoint y="108" as="sourcePoint" />
            <mxPoint x="240" y="100" as="targetPoint" />
          </mxGeometry>
        </mxCell>
        <mxCell id="5-_W_V20jvPb3o29qMEB-247" value="" style="shape=link;html=1;rounded=0;exitX=0.497;exitY=1.051;exitDx=0;exitDy=0;exitPerimeter=0;width=-9.25925925925926;" parent="1" edge="1">
          <mxGeometry width="100" relative="1" as="geometry">
            <mxPoint x="889.7800000000002" y="1270" as="sourcePoint" />
            <mxPoint x="889.7200000000003" y="1300" as="targetPoint" />
          </mxGeometry>
        </mxCell>
        <mxCell id="5-_W_V20jvPb3o29qMEB-248" value="d" style="ellipse;whiteSpace=wrap;html=1;aspect=fixed;" parent="1" vertex="1">
          <mxGeometry x="880" y="1290" width="20" height="20" as="geometry" />
        </mxCell>
        <mxCell id="5-_W_V20jvPb3o29qMEB-256" value="Customer" style="shape=table;startSize=19;container=1;collapsible=1;childLayout=tableLayout;fixedRows=1;rowLines=0;fontStyle=0;align=center;resizeLast=1;fillColor=#CC99FF;" parent="1" vertex="1">
          <mxGeometry x="910" y="1350" width="200" height="100" as="geometry" />
        </mxCell>
        <mxCell id="5-_W_V20jvPb3o29qMEB-257" value="" style="shape=partialRectangle;collapsible=0;dropTarget=0;pointerEvents=0;fillColor=none;points=[[0,0.5],[1,0.5]];portConstraint=eastwest;top=0;left=0;right=0;bottom=1;" parent="5-_W_V20jvPb3o29qMEB-256" vertex="1">
          <mxGeometry y="19" width="200" height="20" as="geometry" />
        </mxCell>
        <mxCell id="5-_W_V20jvPb3o29qMEB-258" value="PK" style="shape=partialRectangle;overflow=hidden;connectable=0;fillColor=#636EFF;top=0;left=0;bottom=0;right=0;fontStyle=1;" parent="5-_W_V20jvPb3o29qMEB-257" vertex="1">
          <mxGeometry width="60" height="20" as="geometry">
            <mxRectangle width="60" height="20" as="alternateBounds" />
          </mxGeometry>
        </mxCell>
        <mxCell id="5-_W_V20jvPb3o29qMEB-259" value="CustomerID" style="shape=partialRectangle;overflow=hidden;connectable=0;fillColor=#636EFF;top=0;left=0;bottom=0;right=0;align=left;spacingLeft=6;fontStyle=5;" parent="5-_W_V20jvPb3o29qMEB-257" vertex="1">
          <mxGeometry x="60" width="140" height="20" as="geometry">
            <mxRectangle width="140" height="20" as="alternateBounds" />
          </mxGeometry>
        </mxCell>
        <mxCell id="5-_W_V20jvPb3o29qMEB-260" value="" style="shape=partialRectangle;collapsible=0;dropTarget=0;pointerEvents=0;fillColor=none;points=[[0,0.5],[1,0.5]];portConstraint=eastwest;top=0;left=0;right=0;bottom=0;" parent="5-_W_V20jvPb3o29qMEB-256" vertex="1">
          <mxGeometry y="39" width="200" height="61" as="geometry" />
        </mxCell>
        <mxCell id="5-_W_V20jvPb3o29qMEB-261" value="Other &#xa;Attributes" style="shape=partialRectangle;overflow=hidden;connectable=0;fillColor=none;top=0;left=0;bottom=0;right=0;" parent="5-_W_V20jvPb3o29qMEB-260" vertex="1">
          <mxGeometry width="60" height="61" as="geometry">
            <mxRectangle width="60" height="61" as="alternateBounds" />
          </mxGeometry>
        </mxCell>
        <mxCell id="5-_W_V20jvPb3o29qMEB-262" value="- Driver&#39;s License" style="shape=partialRectangle;overflow=hidden;connectable=0;fillColor=none;top=0;left=0;bottom=0;right=0;align=left;spacingLeft=6;" parent="5-_W_V20jvPb3o29qMEB-260" vertex="1">
          <mxGeometry x="60" width="140" height="61" as="geometry">
            <mxRectangle width="140" height="61" as="alternateBounds" />
          </mxGeometry>
        </mxCell>
        <mxCell id="5-_W_V20jvPb3o29qMEB-263" value="" style="endArrow=none;html=1;rounded=0;entryX=1;entryY=0.5;entryDx=0;entryDy=0;exitX=0.198;exitY=-0.001;exitDx=0;exitDy=0;exitPerimeter=0;" parent="1" source="5-_W_V20jvPb3o29qMEB-256" target="5-_W_V20jvPb3o29qMEB-248" edge="1">
          <mxGeometry width="50" height="50" relative="1" as="geometry">
            <mxPoint x="950" y="1351" as="sourcePoint" />
            <mxPoint x="990" y="1290" as="targetPoint" />
          </mxGeometry>
        </mxCell>
        <mxCell id="5-_W_V20jvPb3o29qMEB-264" value="" style="endArrow=none;html=1;rounded=0;" parent="1" edge="1">
          <mxGeometry width="50" height="50" relative="1" as="geometry">
            <mxPoint x="830" y="1350" as="sourcePoint" />
            <mxPoint x="880" y="1300" as="targetPoint" />
          </mxGeometry>
        </mxCell>
        <mxCell id="5-_W_V20jvPb3o29qMEB-265" value="Employee" style="shape=table;startSize=20;container=1;collapsible=1;childLayout=tableLayout;fixedRows=1;rowLines=0;fontStyle=0;align=center;resizeLast=1;fillColor=#CC99FF;" parent="1" vertex="1">
          <mxGeometry x="670" y="1350" width="200" height="100" as="geometry" />
        </mxCell>
        <mxCell id="5-_W_V20jvPb3o29qMEB-266" value="" style="shape=partialRectangle;collapsible=0;dropTarget=0;pointerEvents=0;fillColor=none;points=[[0,0.5],[1,0.5]];portConstraint=eastwest;top=0;left=0;right=0;bottom=1;" parent="5-_W_V20jvPb3o29qMEB-265" vertex="1">
          <mxGeometry y="20" width="200" height="20" as="geometry" />
        </mxCell>
        <mxCell id="5-_W_V20jvPb3o29qMEB-267" value="PK" style="shape=partialRectangle;overflow=hidden;connectable=0;fillColor=#636EFF;top=0;left=0;bottom=0;right=0;fontStyle=1;" parent="5-_W_V20jvPb3o29qMEB-266" vertex="1">
          <mxGeometry width="60" height="20" as="geometry">
            <mxRectangle width="60" height="20" as="alternateBounds" />
          </mxGeometry>
        </mxCell>
        <mxCell id="5-_W_V20jvPb3o29qMEB-268" value="EmployeeID" style="shape=partialRectangle;overflow=hidden;connectable=0;fillColor=#636EFF;top=0;left=0;bottom=0;right=0;align=left;spacingLeft=6;fontStyle=5;" parent="5-_W_V20jvPb3o29qMEB-266" vertex="1">
          <mxGeometry x="60" width="140" height="20" as="geometry">
            <mxRectangle width="140" height="20" as="alternateBounds" />
          </mxGeometry>
        </mxCell>
        <mxCell id="5-_W_V20jvPb3o29qMEB-269" value="" style="shape=partialRectangle;collapsible=0;dropTarget=0;pointerEvents=0;fillColor=none;points=[[0,0.5],[1,0.5]];portConstraint=eastwest;top=0;left=0;right=0;bottom=0;" parent="5-_W_V20jvPb3o29qMEB-265" vertex="1">
          <mxGeometry y="40" width="200" height="20" as="geometry" />
        </mxCell>
        <mxCell id="5-_W_V20jvPb3o29qMEB-270" value="FK1" style="shape=partialRectangle;overflow=hidden;connectable=0;fillColor=#FF9933;top=0;left=0;bottom=0;right=0;" parent="5-_W_V20jvPb3o29qMEB-269" vertex="1">
          <mxGeometry width="60" height="20" as="geometry">
            <mxRectangle width="60" height="20" as="alternateBounds" />
          </mxGeometry>
        </mxCell>
        <mxCell id="5-_W_V20jvPb3o29qMEB-271" value="BranchID" style="shape=partialRectangle;overflow=hidden;connectable=0;fillColor=#FF9933;top=0;left=0;bottom=0;right=0;align=left;spacingLeft=6;" parent="5-_W_V20jvPb3o29qMEB-269" vertex="1">
          <mxGeometry x="60" width="140" height="20" as="geometry">
            <mxRectangle width="140" height="20" as="alternateBounds" />
          </mxGeometry>
        </mxCell>
        <mxCell id="5-_W_V20jvPb3o29qMEB-272" value="" style="shape=partialRectangle;collapsible=0;dropTarget=0;pointerEvents=0;fillColor=none;points=[[0,0.5],[1,0.5]];portConstraint=eastwest;top=0;left=0;right=0;bottom=0;" parent="5-_W_V20jvPb3o29qMEB-265" vertex="1">
          <mxGeometry y="60" width="200" height="40" as="geometry" />
        </mxCell>
        <mxCell id="5-_W_V20jvPb3o29qMEB-273" value="Other &#xa;Attributes" style="shape=partialRectangle;overflow=hidden;connectable=0;fillColor=none;top=0;left=0;bottom=0;right=0;" parent="5-_W_V20jvPb3o29qMEB-272" vertex="1">
          <mxGeometry width="60" height="40" as="geometry">
            <mxRectangle width="60" height="40" as="alternateBounds" />
          </mxGeometry>
        </mxCell>
        <mxCell id="5-_W_V20jvPb3o29qMEB-274" value="- Role/Position&#xa;- Hire Date" style="shape=partialRectangle;overflow=hidden;connectable=0;fillColor=none;top=0;left=0;bottom=0;right=0;align=left;spacingLeft=6;" parent="5-_W_V20jvPb3o29qMEB-272" vertex="1">
          <mxGeometry x="60" width="140" height="40" as="geometry">
            <mxRectangle width="140" height="40" as="alternateBounds" />
          </mxGeometry>
        </mxCell>
        <mxCell id="5-_W_V20jvPb3o29qMEB-275" value="" style="endArrow=none;html=1;rounded=0;entryX=0.998;entryY=0;entryDx=0;entryDy=0;entryPerimeter=0;exitX=0;exitY=0;exitDx=0;exitDy=0;exitPerimeter=0;" parent="5-_W_V20jvPb3o29qMEB-265" source="5-_W_V20jvPb3o29qMEB-272" target="5-_W_V20jvPb3o29qMEB-272" edge="1">
          <mxGeometry width="50" height="50" relative="1" as="geometry">
            <mxPoint y="108" as="sourcePoint" />
            <mxPoint x="240" y="100" as="targetPoint" />
          </mxGeometry>
        </mxCell>
        <mxCell id="5-_W_V20jvPb3o29qMEB-276" value="Existing" style="shape=table;startSize=20;container=1;collapsible=1;childLayout=tableLayout;fixedRows=1;rowLines=0;fontStyle=0;align=center;resizeLast=1;fillColor=#666600;" parent="1" vertex="1">
          <mxGeometry x="800" y="1710" width="200" height="100" as="geometry" />
        </mxCell>
        <mxCell id="5-_W_V20jvPb3o29qMEB-277" value="" style="shape=partialRectangle;collapsible=0;dropTarget=0;pointerEvents=0;fillColor=none;points=[[0,0.5],[1,0.5]];portConstraint=eastwest;top=0;left=0;right=0;bottom=1;" parent="5-_W_V20jvPb3o29qMEB-276" vertex="1">
          <mxGeometry y="20" width="200" height="20" as="geometry" />
        </mxCell>
        <mxCell id="5-_W_V20jvPb3o29qMEB-278" value="PK" style="shape=partialRectangle;overflow=hidden;connectable=0;fillColor=#636EFF;top=0;left=0;bottom=0;right=0;fontStyle=1;" parent="5-_W_V20jvPb3o29qMEB-277" vertex="1">
          <mxGeometry width="60" height="20" as="geometry">
            <mxRectangle width="60" height="20" as="alternateBounds" />
          </mxGeometry>
        </mxCell>
        <mxCell id="5-_W_V20jvPb3o29qMEB-279" value="ExistingID" style="shape=partialRectangle;overflow=hidden;connectable=0;fillColor=#636EFF;top=0;left=0;bottom=0;right=0;align=left;spacingLeft=6;fontStyle=5;" parent="5-_W_V20jvPb3o29qMEB-277" vertex="1">
          <mxGeometry x="60" width="140" height="20" as="geometry">
            <mxRectangle width="140" height="20" as="alternateBounds" />
          </mxGeometry>
        </mxCell>
        <mxCell id="5-_W_V20jvPb3o29qMEB-280" value="" style="shape=partialRectangle;collapsible=0;dropTarget=0;pointerEvents=0;fillColor=none;points=[[0,0.5],[1,0.5]];portConstraint=eastwest;top=0;left=0;right=0;bottom=0;" parent="5-_W_V20jvPb3o29qMEB-276" vertex="1">
          <mxGeometry y="40" width="200" height="60" as="geometry" />
        </mxCell>
        <mxCell id="5-_W_V20jvPb3o29qMEB-281" value="FK1&#xa;FK2" style="shape=partialRectangle;overflow=hidden;connectable=0;fillColor=none;top=0;left=0;bottom=0;right=0;" parent="5-_W_V20jvPb3o29qMEB-280" vertex="1">
          <mxGeometry width="60" height="60" as="geometry">
            <mxRectangle width="60" height="60" as="alternateBounds" />
          </mxGeometry>
        </mxCell>
        <mxCell id="5-_W_V20jvPb3o29qMEB-282" value="RentalID&#xa;PaymentID" style="shape=partialRectangle;overflow=hidden;connectable=0;fillColor=none;top=0;left=0;bottom=0;right=0;align=left;spacingLeft=6;" parent="5-_W_V20jvPb3o29qMEB-280" vertex="1">
          <mxGeometry x="60" width="140" height="60" as="geometry">
            <mxRectangle width="140" height="60" as="alternateBounds" />
          </mxGeometry>
        </mxCell>
        <mxCell id="5-_W_V20jvPb3o29qMEB-286" value="" style="endArrow=none;html=1;rounded=0;entryX=0.998;entryY=0;entryDx=0;entryDy=0;entryPerimeter=0;exitX=0;exitY=0;exitDx=0;exitDy=0;exitPerimeter=0;" parent="5-_W_V20jvPb3o29qMEB-276" edge="1">
          <mxGeometry width="50" height="50" relative="1" as="geometry">
            <mxPoint y="99.69" as="sourcePoint" />
            <mxPoint x="199.60000000000036" y="99.69" as="targetPoint" />
            <Array as="points">
              <mxPoint x="100" y="99.69" />
            </Array>
          </mxGeometry>
        </mxCell>
        <mxCell id="5-_W_V20jvPb3o29qMEB-287" value="Full Time" style="shape=table;startSize=20;container=1;collapsible=1;childLayout=tableLayout;fixedRows=1;rowLines=0;fontStyle=0;align=center;resizeLast=1;fillColor=#666600;" parent="1" vertex="1">
          <mxGeometry x="560" y="1520" width="200" height="101" as="geometry" />
        </mxCell>
        <mxCell id="5-_W_V20jvPb3o29qMEB-288" value="" style="shape=partialRectangle;collapsible=0;dropTarget=0;pointerEvents=0;fillColor=none;points=[[0,0.5],[1,0.5]];portConstraint=eastwest;top=0;left=0;right=0;bottom=1;" parent="5-_W_V20jvPb3o29qMEB-287" vertex="1">
          <mxGeometry y="20" width="200" height="20" as="geometry" />
        </mxCell>
        <mxCell id="5-_W_V20jvPb3o29qMEB-289" value="PK" style="shape=partialRectangle;overflow=hidden;connectable=0;fillColor=#636EFF;top=0;left=0;bottom=0;right=0;fontStyle=1;" parent="5-_W_V20jvPb3o29qMEB-288" vertex="1">
          <mxGeometry width="60" height="20" as="geometry">
            <mxRectangle width="60" height="20" as="alternateBounds" />
          </mxGeometry>
        </mxCell>
        <mxCell id="5-_W_V20jvPb3o29qMEB-290" value="FullTimeID" style="shape=partialRectangle;overflow=hidden;connectable=0;fillColor=#636EFF;top=0;left=0;bottom=0;right=0;align=left;spacingLeft=6;fontStyle=5;" parent="5-_W_V20jvPb3o29qMEB-288" vertex="1">
          <mxGeometry x="60" width="140" height="20" as="geometry">
            <mxRectangle width="140" height="20" as="alternateBounds" />
          </mxGeometry>
        </mxCell>
        <mxCell id="5-_W_V20jvPb3o29qMEB-291" value="" style="shape=partialRectangle;collapsible=0;dropTarget=0;pointerEvents=0;fillColor=none;points=[[0,0.5],[1,0.5]];portConstraint=eastwest;top=0;left=0;right=0;bottom=0;" parent="5-_W_V20jvPb3o29qMEB-287" vertex="1">
          <mxGeometry y="40" width="200" height="61" as="geometry" />
        </mxCell>
        <mxCell id="5-_W_V20jvPb3o29qMEB-292" value="Other &#xa;Attributes" style="shape=partialRectangle;overflow=hidden;connectable=0;fillColor=none;top=0;left=0;bottom=0;right=0;" parent="5-_W_V20jvPb3o29qMEB-291" vertex="1">
          <mxGeometry width="60" height="61" as="geometry">
            <mxRectangle width="60" height="61" as="alternateBounds" />
          </mxGeometry>
        </mxCell>
        <mxCell id="5-_W_V20jvPb3o29qMEB-293" value="- Insurance Benefit&#xa;- Salary" style="shape=partialRectangle;overflow=hidden;connectable=0;fillColor=none;top=0;left=0;bottom=0;right=0;align=left;spacingLeft=6;" parent="5-_W_V20jvPb3o29qMEB-291" vertex="1">
          <mxGeometry x="60" width="140" height="61" as="geometry">
            <mxRectangle width="140" height="61" as="alternateBounds" />
          </mxGeometry>
        </mxCell>
        <mxCell id="5-_W_V20jvPb3o29qMEB-294" value="Part Time" style="shape=table;startSize=20;container=1;collapsible=1;childLayout=tableLayout;fixedRows=1;rowLines=0;fontStyle=0;align=center;resizeLast=1;fillColor=#666600;" parent="1" vertex="1">
          <mxGeometry x="780" y="1520" width="200" height="101" as="geometry" />
        </mxCell>
        <mxCell id="5-_W_V20jvPb3o29qMEB-295" value="" style="shape=partialRectangle;collapsible=0;dropTarget=0;pointerEvents=0;fillColor=none;points=[[0,0.5],[1,0.5]];portConstraint=eastwest;top=0;left=0;right=0;bottom=1;" parent="5-_W_V20jvPb3o29qMEB-294" vertex="1">
          <mxGeometry y="20" width="200" height="20" as="geometry" />
        </mxCell>
        <mxCell id="5-_W_V20jvPb3o29qMEB-296" value="PK" style="shape=partialRectangle;overflow=hidden;connectable=0;fillColor=#636EFF;top=0;left=0;bottom=0;right=0;fontStyle=1;" parent="5-_W_V20jvPb3o29qMEB-295" vertex="1">
          <mxGeometry width="60" height="20" as="geometry">
            <mxRectangle width="60" height="20" as="alternateBounds" />
          </mxGeometry>
        </mxCell>
        <mxCell id="5-_W_V20jvPb3o29qMEB-297" value="PartTimeID" style="shape=partialRectangle;overflow=hidden;connectable=0;fillColor=#636EFF;top=0;left=0;bottom=0;right=0;align=left;spacingLeft=6;fontStyle=5;" parent="5-_W_V20jvPb3o29qMEB-295" vertex="1">
          <mxGeometry x="60" width="140" height="20" as="geometry">
            <mxRectangle width="140" height="20" as="alternateBounds" />
          </mxGeometry>
        </mxCell>
        <mxCell id="5-_W_V20jvPb3o29qMEB-298" value="" style="shape=partialRectangle;collapsible=0;dropTarget=0;pointerEvents=0;fillColor=none;points=[[0,0.5],[1,0.5]];portConstraint=eastwest;top=0;left=0;right=0;bottom=0;" parent="5-_W_V20jvPb3o29qMEB-294" vertex="1">
          <mxGeometry y="40" width="200" height="61" as="geometry" />
        </mxCell>
        <mxCell id="5-_W_V20jvPb3o29qMEB-299" value="Other &#xa;Attributes" style="shape=partialRectangle;overflow=hidden;connectable=0;fillColor=none;top=0;left=0;bottom=0;right=0;" parent="5-_W_V20jvPb3o29qMEB-298" vertex="1">
          <mxGeometry width="60" height="61" as="geometry">
            <mxRectangle width="60" height="61" as="alternateBounds" />
          </mxGeometry>
        </mxCell>
        <mxCell id="5-_W_V20jvPb3o29qMEB-300" value="- Wages" style="shape=partialRectangle;overflow=hidden;connectable=0;fillColor=none;top=0;left=0;bottom=0;right=0;align=left;spacingLeft=6;" parent="5-_W_V20jvPb3o29qMEB-298" vertex="1">
          <mxGeometry x="60" width="140" height="61" as="geometry">
            <mxRectangle width="140" height="61" as="alternateBounds" />
          </mxGeometry>
        </mxCell>
        <mxCell id="5-_W_V20jvPb3o29qMEB-301" value="" style="shape=link;html=1;rounded=0;exitX=0.497;exitY=1.051;exitDx=0;exitDy=0;exitPerimeter=0;width=-9.25925925925926;entryX=0.497;entryY=0.042;entryDx=0;entryDy=0;entryPerimeter=0;" parent="1" target="5-_W_V20jvPb3o29qMEB-302" edge="1">
          <mxGeometry width="100" relative="1" as="geometry">
            <mxPoint x="769.8699999999999" y="1450" as="sourcePoint" />
            <mxPoint x="770" y="1470" as="targetPoint" />
          </mxGeometry>
        </mxCell>
        <mxCell id="5-_W_V20jvPb3o29qMEB-302" value="d" style="ellipse;whiteSpace=wrap;html=1;aspect=fixed;" parent="1" vertex="1">
          <mxGeometry x="760" y="1470" width="20" height="20" as="geometry" />
        </mxCell>
        <mxCell id="5-_W_V20jvPb3o29qMEB-304" value="" style="endArrow=none;html=1;rounded=0;exitX=0.799;exitY=-0.001;exitDx=0;exitDy=0;exitPerimeter=0;" parent="1" source="5-_W_V20jvPb3o29qMEB-287" edge="1">
          <mxGeometry width="50" height="50" relative="1" as="geometry">
            <mxPoint x="710" y="1530" as="sourcePoint" />
            <mxPoint x="760" y="1480" as="targetPoint" />
          </mxGeometry>
        </mxCell>
        <mxCell id="5-_W_V20jvPb3o29qMEB-305" value="" style="endArrow=none;html=1;rounded=0;entryX=0.2;entryY=-0.002;entryDx=0;entryDy=0;entryPerimeter=0;" parent="1" target="5-_W_V20jvPb3o29qMEB-294" edge="1">
          <mxGeometry width="50" height="50" relative="1" as="geometry">
            <mxPoint x="780" y="1480" as="sourcePoint" />
            <mxPoint x="830" y="1430" as="targetPoint" />
          </mxGeometry>
        </mxCell>
        <mxCell id="5-_W_V20jvPb3o29qMEB-307" value="" style="shape=link;html=1;rounded=0;exitX=0.497;exitY=1.051;exitDx=0;exitDy=0;exitPerimeter=0;width=-9.25925925925926;entryX=0.508;entryY=0.052;entryDx=0;entryDy=0;entryPerimeter=0;" parent="1" target="5-_W_V20jvPb3o29qMEB-308" edge="1">
          <mxGeometry width="100" relative="1" as="geometry">
            <mxPoint x="1009.79" y="1450" as="sourcePoint" />
            <mxPoint x="1010" y="1650" as="targetPoint" />
          </mxGeometry>
        </mxCell>
        <mxCell id="5-_W_V20jvPb3o29qMEB-308" value="d" style="ellipse;whiteSpace=wrap;html=1;aspect=fixed;" parent="1" vertex="1">
          <mxGeometry x="1000" y="1650" width="20" height="20" as="geometry" />
        </mxCell>
        <mxCell id="5-_W_V20jvPb3o29qMEB-309" value="New" style="shape=table;startSize=20;container=1;collapsible=1;childLayout=tableLayout;fixedRows=1;rowLines=0;fontStyle=0;align=center;resizeLast=1;fillColor=#666600;" parent="1" vertex="1">
          <mxGeometry x="1020" y="1710" width="200" height="101" as="geometry" />
        </mxCell>
        <mxCell id="5-_W_V20jvPb3o29qMEB-310" value="" style="shape=partialRectangle;collapsible=0;dropTarget=0;pointerEvents=0;fillColor=none;points=[[0,0.5],[1,0.5]];portConstraint=eastwest;top=0;left=0;right=0;bottom=1;" parent="5-_W_V20jvPb3o29qMEB-309" vertex="1">
          <mxGeometry y="20" width="200" height="20" as="geometry" />
        </mxCell>
        <mxCell id="5-_W_V20jvPb3o29qMEB-311" value="PK" style="shape=partialRectangle;overflow=hidden;connectable=0;fillColor=#636EFF;top=0;left=0;bottom=0;right=0;fontStyle=1;" parent="5-_W_V20jvPb3o29qMEB-310" vertex="1">
          <mxGeometry width="60" height="20" as="geometry">
            <mxRectangle width="60" height="20" as="alternateBounds" />
          </mxGeometry>
        </mxCell>
        <mxCell id="5-_W_V20jvPb3o29qMEB-312" value="NewID" style="shape=partialRectangle;overflow=hidden;connectable=0;fillColor=#636EFF;top=0;left=0;bottom=0;right=0;align=left;spacingLeft=6;fontStyle=5;" parent="5-_W_V20jvPb3o29qMEB-310" vertex="1">
          <mxGeometry x="60" width="140" height="20" as="geometry">
            <mxRectangle width="140" height="20" as="alternateBounds" />
          </mxGeometry>
        </mxCell>
        <mxCell id="5-_W_V20jvPb3o29qMEB-313" value="" style="shape=partialRectangle;collapsible=0;dropTarget=0;pointerEvents=0;fillColor=none;points=[[0,0.5],[1,0.5]];portConstraint=eastwest;top=0;left=0;right=0;bottom=0;" parent="5-_W_V20jvPb3o29qMEB-309" vertex="1">
          <mxGeometry y="40" width="200" height="61" as="geometry" />
        </mxCell>
        <mxCell id="5-_W_V20jvPb3o29qMEB-314" value="" style="shape=partialRectangle;overflow=hidden;connectable=0;fillColor=none;top=0;left=0;bottom=0;right=0;" parent="5-_W_V20jvPb3o29qMEB-313" vertex="1">
          <mxGeometry width="60" height="61" as="geometry">
            <mxRectangle width="60" height="61" as="alternateBounds" />
          </mxGeometry>
        </mxCell>
        <mxCell id="5-_W_V20jvPb3o29qMEB-315" value="" style="shape=partialRectangle;overflow=hidden;connectable=0;fillColor=none;top=0;left=0;bottom=0;right=0;align=left;spacingLeft=6;" parent="5-_W_V20jvPb3o29qMEB-313" vertex="1">
          <mxGeometry x="60" width="140" height="61" as="geometry">
            <mxRectangle width="140" height="61" as="alternateBounds" />
          </mxGeometry>
        </mxCell>
        <mxCell id="5-_W_V20jvPb3o29qMEB-316" value="" style="endArrow=none;html=1;rounded=0;exitX=0.799;exitY=-0.001;exitDx=0;exitDy=0;exitPerimeter=0;entryX=0;entryY=0.5;entryDx=0;entryDy=0;" parent="1" target="5-_W_V20jvPb3o29qMEB-308" edge="1">
          <mxGeometry width="50" height="50" relative="1" as="geometry">
            <mxPoint x="960" y="1710" as="sourcePoint" />
            <mxPoint x="1000" y="1670" as="targetPoint" />
          </mxGeometry>
        </mxCell>
        <mxCell id="5-_W_V20jvPb3o29qMEB-317" value="" style="endArrow=none;html=1;rounded=0;exitX=0.799;exitY=-0.001;exitDx=0;exitDy=0;exitPerimeter=0;entryX=1;entryY=0.5;entryDx=0;entryDy=0;" parent="1" target="5-_W_V20jvPb3o29qMEB-308" edge="1">
          <mxGeometry width="50" height="50" relative="1" as="geometry">
            <mxPoint x="1060" y="1710" as="sourcePoint" />
            <mxPoint x="1100" y="1670" as="targetPoint" />
          </mxGeometry>
        </mxCell>
        <mxCell id="5-_W_V20jvPb3o29qMEB-318" value="Payment" style="shape=table;startSize=20;container=1;collapsible=1;childLayout=tableLayout;fixedRows=1;rowLines=0;fontStyle=1;align=center;resizeLast=1;fillColor=#00FF00;" parent="1" vertex="1">
          <mxGeometry x="1790" y="1110" width="200" height="160" as="geometry" />
        </mxCell>
        <mxCell id="5-_W_V20jvPb3o29qMEB-319" value="" style="shape=partialRectangle;collapsible=0;dropTarget=0;pointerEvents=0;fillColor=none;points=[[0,0.5],[1,0.5]];portConstraint=eastwest;top=0;left=0;right=0;bottom=1;" parent="5-_W_V20jvPb3o29qMEB-318" vertex="1">
          <mxGeometry y="20" width="200" height="20" as="geometry" />
        </mxCell>
        <mxCell id="5-_W_V20jvPb3o29qMEB-320" value="PK" style="shape=partialRectangle;overflow=hidden;connectable=0;fillColor=#636EFF;top=0;left=0;bottom=0;right=0;fontStyle=1;" parent="5-_W_V20jvPb3o29qMEB-319" vertex="1">
          <mxGeometry width="60" height="20" as="geometry">
            <mxRectangle width="60" height="20" as="alternateBounds" />
          </mxGeometry>
        </mxCell>
        <mxCell id="5-_W_V20jvPb3o29qMEB-321" value="PaymentID" style="shape=partialRectangle;overflow=hidden;connectable=0;fillColor=#636EFF;top=0;left=0;bottom=0;right=0;align=left;spacingLeft=6;fontStyle=5;" parent="5-_W_V20jvPb3o29qMEB-319" vertex="1">
          <mxGeometry x="60" width="140" height="20" as="geometry">
            <mxRectangle width="140" height="20" as="alternateBounds" />
          </mxGeometry>
        </mxCell>
        <mxCell id="5-_W_V20jvPb3o29qMEB-322" value="" style="shape=partialRectangle;collapsible=0;dropTarget=0;pointerEvents=0;fillColor=none;points=[[0,0.5],[1,0.5]];portConstraint=eastwest;top=0;left=0;right=0;bottom=0;" parent="5-_W_V20jvPb3o29qMEB-318" vertex="1">
          <mxGeometry y="40" width="200" height="20" as="geometry" />
        </mxCell>
        <mxCell id="5-_W_V20jvPb3o29qMEB-323" value="FK1" style="shape=partialRectangle;overflow=hidden;connectable=0;fillColor=#FF9933;top=0;left=0;bottom=0;right=0;" parent="5-_W_V20jvPb3o29qMEB-322" vertex="1">
          <mxGeometry width="60" height="20" as="geometry">
            <mxRectangle width="60" height="20" as="alternateBounds" />
          </mxGeometry>
        </mxCell>
        <mxCell id="5-_W_V20jvPb3o29qMEB-324" value="RentalID" style="shape=partialRectangle;overflow=hidden;connectable=0;fillColor=#FF9933;top=0;left=0;bottom=0;right=0;align=left;spacingLeft=6;" parent="5-_W_V20jvPb3o29qMEB-322" vertex="1">
          <mxGeometry x="60" width="140" height="20" as="geometry">
            <mxRectangle width="140" height="20" as="alternateBounds" />
          </mxGeometry>
        </mxCell>
        <mxCell id="5-_W_V20jvPb3o29qMEB-325" value="" style="shape=partialRectangle;collapsible=0;dropTarget=0;pointerEvents=0;fillColor=none;points=[[0,0.5],[1,0.5]];portConstraint=eastwest;top=0;left=0;right=0;bottom=0;" parent="5-_W_V20jvPb3o29qMEB-318" vertex="1">
          <mxGeometry y="60" width="200" height="100" as="geometry" />
        </mxCell>
        <mxCell id="5-_W_V20jvPb3o29qMEB-326" value="Other &#xa;Attributes" style="shape=partialRectangle;overflow=hidden;connectable=0;fillColor=none;top=0;left=0;bottom=0;right=0;" parent="5-_W_V20jvPb3o29qMEB-325" vertex="1">
          <mxGeometry width="60" height="100" as="geometry">
            <mxRectangle width="60" height="100" as="alternateBounds" />
          </mxGeometry>
        </mxCell>
        <mxCell id="5-_W_V20jvPb3o29qMEB-327" value="- Payment Date/Time&#xa;- Amount&#xa;- Payment Method" style="shape=partialRectangle;overflow=hidden;connectable=0;fillColor=none;top=0;left=0;bottom=0;right=0;align=left;spacingLeft=6;" parent="5-_W_V20jvPb3o29qMEB-325" vertex="1">
          <mxGeometry x="60" width="140" height="100" as="geometry">
            <mxRectangle width="140" height="100" as="alternateBounds" />
          </mxGeometry>
        </mxCell>
        <mxCell id="5-_W_V20jvPb3o29qMEB-328" value="" style="endArrow=none;html=1;rounded=0;entryX=0.998;entryY=0;entryDx=0;entryDy=0;entryPerimeter=0;exitX=0;exitY=0;exitDx=0;exitDy=0;exitPerimeter=0;" parent="5-_W_V20jvPb3o29qMEB-318" source="5-_W_V20jvPb3o29qMEB-325" target="5-_W_V20jvPb3o29qMEB-325" edge="1">
          <mxGeometry width="50" height="50" relative="1" as="geometry">
            <mxPoint y="108" as="sourcePoint" />
            <mxPoint x="240" y="100" as="targetPoint" />
          </mxGeometry>
        </mxCell>
        <mxCell id="5-_W_V20jvPb3o29qMEB-329" value="" style="shape=link;html=1;rounded=0;exitX=0.497;exitY=1.051;exitDx=0;exitDy=0;exitPerimeter=0;width=-9.25925925925926;" parent="1" edge="1">
          <mxGeometry width="100" relative="1" as="geometry">
            <mxPoint x="1889.7800000000002" y="1270" as="sourcePoint" />
            <mxPoint x="1889.7200000000003" y="1300" as="targetPoint" />
          </mxGeometry>
        </mxCell>
        <mxCell id="5-_W_V20jvPb3o29qMEB-330" value="d" style="ellipse;whiteSpace=wrap;html=1;aspect=fixed;" parent="1" vertex="1">
          <mxGeometry x="1880" y="1290" width="20" height="20" as="geometry" />
        </mxCell>
        <mxCell id="5-_W_V20jvPb3o29qMEB-331" value="Cheque" style="shape=table;startSize=20;container=1;collapsible=1;childLayout=tableLayout;fixedRows=1;rowLines=0;fontStyle=0;align=center;resizeLast=1;fillColor=#CC99FF;" parent="1" vertex="1">
          <mxGeometry x="1550" y="1350" width="200" height="100" as="geometry" />
        </mxCell>
        <mxCell id="5-_W_V20jvPb3o29qMEB-332" value="" style="shape=partialRectangle;collapsible=0;dropTarget=0;pointerEvents=0;fillColor=none;points=[[0,0.5],[1,0.5]];portConstraint=eastwest;top=0;left=0;right=0;bottom=1;" parent="5-_W_V20jvPb3o29qMEB-331" vertex="1">
          <mxGeometry y="20" width="200" height="20" as="geometry" />
        </mxCell>
        <mxCell id="5-_W_V20jvPb3o29qMEB-333" value="PK" style="shape=partialRectangle;overflow=hidden;connectable=0;fillColor=#636EFF;top=0;left=0;bottom=0;right=0;fontStyle=1;" parent="5-_W_V20jvPb3o29qMEB-332" vertex="1">
          <mxGeometry width="60" height="20" as="geometry">
            <mxRectangle width="60" height="20" as="alternateBounds" />
          </mxGeometry>
        </mxCell>
        <mxCell id="5-_W_V20jvPb3o29qMEB-334" value="ChequeID" style="shape=partialRectangle;overflow=hidden;connectable=0;fillColor=#636EFF;top=0;left=0;bottom=0;right=0;align=left;spacingLeft=6;fontStyle=5;" parent="5-_W_V20jvPb3o29qMEB-332" vertex="1">
          <mxGeometry x="60" width="140" height="20" as="geometry">
            <mxRectangle width="140" height="20" as="alternateBounds" />
          </mxGeometry>
        </mxCell>
        <mxCell id="5-_W_V20jvPb3o29qMEB-335" value="" style="shape=partialRectangle;collapsible=0;dropTarget=0;pointerEvents=0;fillColor=none;points=[[0,0.5],[1,0.5]];portConstraint=eastwest;top=0;left=0;right=0;bottom=0;" parent="5-_W_V20jvPb3o29qMEB-331" vertex="1">
          <mxGeometry y="40" width="200" height="60" as="geometry" />
        </mxCell>
        <mxCell id="5-_W_V20jvPb3o29qMEB-336" value="Other &#xa;Attributes" style="shape=partialRectangle;overflow=hidden;connectable=0;fillColor=none;top=0;left=0;bottom=0;right=0;" parent="5-_W_V20jvPb3o29qMEB-335" vertex="1">
          <mxGeometry width="60" height="60" as="geometry">
            <mxRectangle width="60" height="60" as="alternateBounds" />
          </mxGeometry>
        </mxCell>
        <mxCell id="5-_W_V20jvPb3o29qMEB-337" value="- Cheque Number" style="shape=partialRectangle;overflow=hidden;connectable=0;fillColor=none;top=0;left=0;bottom=0;right=0;align=left;spacingLeft=6;" parent="5-_W_V20jvPb3o29qMEB-335" vertex="1">
          <mxGeometry x="60" width="140" height="60" as="geometry">
            <mxRectangle width="140" height="60" as="alternateBounds" />
          </mxGeometry>
        </mxCell>
        <mxCell id="5-_W_V20jvPb3o29qMEB-338" value="Card" style="shape=table;startSize=19;container=1;collapsible=1;childLayout=tableLayout;fixedRows=1;rowLines=0;fontStyle=0;align=center;resizeLast=1;fillColor=#CC99FF;" parent="1" vertex="1">
          <mxGeometry x="2030" y="1350" width="200" height="100" as="geometry" />
        </mxCell>
        <mxCell id="5-_W_V20jvPb3o29qMEB-339" value="" style="shape=partialRectangle;collapsible=0;dropTarget=0;pointerEvents=0;fillColor=none;points=[[0,0.5],[1,0.5]];portConstraint=eastwest;top=0;left=0;right=0;bottom=1;" parent="5-_W_V20jvPb3o29qMEB-338" vertex="1">
          <mxGeometry y="19" width="200" height="30" as="geometry" />
        </mxCell>
        <mxCell id="5-_W_V20jvPb3o29qMEB-340" value="PK" style="shape=partialRectangle;overflow=hidden;connectable=0;fillColor=#636EFF;top=0;left=0;bottom=0;right=0;fontStyle=1;" parent="5-_W_V20jvPb3o29qMEB-339" vertex="1">
          <mxGeometry width="60" height="30" as="geometry">
            <mxRectangle width="60" height="30" as="alternateBounds" />
          </mxGeometry>
        </mxCell>
        <mxCell id="5-_W_V20jvPb3o29qMEB-341" value="CardID" style="shape=partialRectangle;overflow=hidden;connectable=0;fillColor=#636EFF;top=0;left=0;bottom=0;right=0;align=left;spacingLeft=6;fontStyle=5;" parent="5-_W_V20jvPb3o29qMEB-339" vertex="1">
          <mxGeometry x="60" width="140" height="30" as="geometry">
            <mxRectangle width="140" height="30" as="alternateBounds" />
          </mxGeometry>
        </mxCell>
        <mxCell id="5-_W_V20jvPb3o29qMEB-342" value="" style="shape=partialRectangle;collapsible=0;dropTarget=0;pointerEvents=0;fillColor=none;points=[[0,0.5],[1,0.5]];portConstraint=eastwest;top=0;left=0;right=0;bottom=0;" parent="5-_W_V20jvPb3o29qMEB-338" vertex="1">
          <mxGeometry y="49" width="200" height="51" as="geometry" />
        </mxCell>
        <mxCell id="5-_W_V20jvPb3o29qMEB-343" value="Other &#xa;Attributes" style="shape=partialRectangle;overflow=hidden;connectable=0;fillColor=none;top=0;left=0;bottom=0;right=0;" parent="5-_W_V20jvPb3o29qMEB-342" vertex="1">
          <mxGeometry width="60" height="51" as="geometry">
            <mxRectangle width="60" height="51" as="alternateBounds" />
          </mxGeometry>
        </mxCell>
        <mxCell id="5-_W_V20jvPb3o29qMEB-344" value="- Card Number&#xa;- Readable Chip&#xa;-CVV        - NFC" style="shape=partialRectangle;overflow=hidden;connectable=0;fillColor=none;top=0;left=0;bottom=0;right=0;align=left;spacingLeft=6;" parent="5-_W_V20jvPb3o29qMEB-342" vertex="1">
          <mxGeometry x="60" width="140" height="51" as="geometry">
            <mxRectangle width="140" height="51" as="alternateBounds" />
          </mxGeometry>
        </mxCell>
        <mxCell id="5-_W_V20jvPb3o29qMEB-345" value="" style="endArrow=none;html=1;rounded=0;entryX=0;entryY=0.5;entryDx=0;entryDy=0;exitX=0.801;exitY=0.001;exitDx=0;exitDy=0;exitPerimeter=0;" parent="1" source="5-_W_V20jvPb3o29qMEB-331" target="5-_W_V20jvPb3o29qMEB-330" edge="1">
          <mxGeometry width="50" height="50" relative="1" as="geometry">
            <mxPoint x="1670" y="1350" as="sourcePoint" />
            <mxPoint x="1720" y="1300" as="targetPoint" />
            <Array as="points" />
          </mxGeometry>
        </mxCell>
        <mxCell id="5-_W_V20jvPb3o29qMEB-346" value="Cash" style="shape=table;startSize=20;container=1;collapsible=1;childLayout=tableLayout;fixedRows=1;rowLines=0;fontStyle=0;align=center;resizeLast=1;fillColor=#CC99FF;" parent="1" vertex="1">
          <mxGeometry x="1790" y="1350" width="200" height="100" as="geometry" />
        </mxCell>
        <mxCell id="5-_W_V20jvPb3o29qMEB-347" value="" style="shape=partialRectangle;collapsible=0;dropTarget=0;pointerEvents=0;fillColor=none;points=[[0,0.5],[1,0.5]];portConstraint=eastwest;top=0;left=0;right=0;bottom=1;" parent="5-_W_V20jvPb3o29qMEB-346" vertex="1">
          <mxGeometry y="20" width="200" height="20" as="geometry" />
        </mxCell>
        <mxCell id="5-_W_V20jvPb3o29qMEB-348" value="PK" style="shape=partialRectangle;overflow=hidden;connectable=0;fillColor=#636EFF;top=0;left=0;bottom=0;right=0;fontStyle=1;" parent="5-_W_V20jvPb3o29qMEB-347" vertex="1">
          <mxGeometry width="60" height="20" as="geometry">
            <mxRectangle width="60" height="20" as="alternateBounds" />
          </mxGeometry>
        </mxCell>
        <mxCell id="5-_W_V20jvPb3o29qMEB-349" value="CashID" style="shape=partialRectangle;overflow=hidden;connectable=0;fillColor=#636EFF;top=0;left=0;bottom=0;right=0;align=left;spacingLeft=6;fontStyle=5;" parent="5-_W_V20jvPb3o29qMEB-347" vertex="1">
          <mxGeometry x="60" width="140" height="20" as="geometry">
            <mxRectangle width="140" height="20" as="alternateBounds" />
          </mxGeometry>
        </mxCell>
        <mxCell id="5-_W_V20jvPb3o29qMEB-350" value="" style="shape=partialRectangle;collapsible=0;dropTarget=0;pointerEvents=0;fillColor=none;points=[[0,0.5],[1,0.5]];portConstraint=eastwest;top=0;left=0;right=0;bottom=0;" parent="5-_W_V20jvPb3o29qMEB-346" vertex="1">
          <mxGeometry y="40" width="200" height="60" as="geometry" />
        </mxCell>
        <mxCell id="5-_W_V20jvPb3o29qMEB-351" value="Other &#xa;Attributes" style="shape=partialRectangle;overflow=hidden;connectable=0;fillColor=none;top=0;left=0;bottom=0;right=0;" parent="5-_W_V20jvPb3o29qMEB-350" vertex="1">
          <mxGeometry width="60" height="60" as="geometry">
            <mxRectangle width="60" height="60" as="alternateBounds" />
          </mxGeometry>
        </mxCell>
        <mxCell id="5-_W_V20jvPb3o29qMEB-352" value="- Serial Number" style="shape=partialRectangle;overflow=hidden;connectable=0;fillColor=none;top=0;left=0;bottom=0;right=0;align=left;spacingLeft=6;" parent="5-_W_V20jvPb3o29qMEB-350" vertex="1">
          <mxGeometry x="60" width="140" height="60" as="geometry">
            <mxRectangle width="140" height="60" as="alternateBounds" />
          </mxGeometry>
        </mxCell>
        <mxCell id="5-_W_V20jvPb3o29qMEB-353" value="" style="endArrow=none;html=1;rounded=0;entryX=0.199;entryY=0.001;entryDx=0;entryDy=0;exitX=0.801;exitY=0.001;exitDx=0;exitDy=0;exitPerimeter=0;entryPerimeter=0;" parent="1" target="5-_W_V20jvPb3o29qMEB-338" edge="1">
          <mxGeometry width="50" height="50" relative="1" as="geometry">
            <mxPoint x="1900" y="1300" as="sourcePoint" />
            <mxPoint x="2070" y="1250" as="targetPoint" />
            <Array as="points" />
          </mxGeometry>
        </mxCell>
        <mxCell id="5-_W_V20jvPb3o29qMEB-354" value="" style="endArrow=none;html=1;rounded=0;entryX=1;entryY=0.5;entryDx=0;entryDy=0;exitX=0.5;exitY=0;exitDx=0;exitDy=0;" parent="1" source="5-_W_V20jvPb3o29qMEB-346" edge="1">
          <mxGeometry width="50" height="50" relative="1" as="geometry">
            <mxPoint x="1940" y="1360" as="sourcePoint" />
            <mxPoint x="1890" y="1310" as="targetPoint" />
          </mxGeometry>
        </mxCell>
        <mxCell id="5-_W_V20jvPb3o29qMEB-355" value="Credit" style="shape=table;startSize=20;container=1;collapsible=1;childLayout=tableLayout;fixedRows=1;rowLines=0;fontStyle=0;align=center;resizeLast=1;fillColor=#666600;" parent="1" vertex="1">
          <mxGeometry x="1920" y="1530" width="200" height="101" as="geometry" />
        </mxCell>
        <mxCell id="5-_W_V20jvPb3o29qMEB-356" value="" style="shape=partialRectangle;collapsible=0;dropTarget=0;pointerEvents=0;fillColor=none;points=[[0,0.5],[1,0.5]];portConstraint=eastwest;top=0;left=0;right=0;bottom=1;" parent="5-_W_V20jvPb3o29qMEB-355" vertex="1">
          <mxGeometry y="20" width="200" height="20" as="geometry" />
        </mxCell>
        <mxCell id="5-_W_V20jvPb3o29qMEB-357" value="PK" style="shape=partialRectangle;overflow=hidden;connectable=0;fillColor=#636EFF;top=0;left=0;bottom=0;right=0;fontStyle=1;" parent="5-_W_V20jvPb3o29qMEB-356" vertex="1">
          <mxGeometry width="60" height="20" as="geometry">
            <mxRectangle width="60" height="20" as="alternateBounds" />
          </mxGeometry>
        </mxCell>
        <mxCell id="5-_W_V20jvPb3o29qMEB-358" value="CreditID" style="shape=partialRectangle;overflow=hidden;connectable=0;fillColor=#636EFF;top=0;left=0;bottom=0;right=0;align=left;spacingLeft=6;fontStyle=5;" parent="5-_W_V20jvPb3o29qMEB-356" vertex="1">
          <mxGeometry x="60" width="140" height="20" as="geometry">
            <mxRectangle width="140" height="20" as="alternateBounds" />
          </mxGeometry>
        </mxCell>
        <mxCell id="5-_W_V20jvPb3o29qMEB-359" value="" style="shape=partialRectangle;collapsible=0;dropTarget=0;pointerEvents=0;fillColor=none;points=[[0,0.5],[1,0.5]];portConstraint=eastwest;top=0;left=0;right=0;bottom=0;" parent="5-_W_V20jvPb3o29qMEB-355" vertex="1">
          <mxGeometry y="40" width="200" height="61" as="geometry" />
        </mxCell>
        <mxCell id="5-_W_V20jvPb3o29qMEB-360" value="" style="shape=partialRectangle;overflow=hidden;connectable=0;fillColor=none;top=0;left=0;bottom=0;right=0;" parent="5-_W_V20jvPb3o29qMEB-359" vertex="1">
          <mxGeometry width="60" height="61" as="geometry">
            <mxRectangle width="60" height="61" as="alternateBounds" />
          </mxGeometry>
        </mxCell>
        <mxCell id="5-_W_V20jvPb3o29qMEB-361" value="" style="shape=partialRectangle;overflow=hidden;connectable=0;fillColor=none;top=0;left=0;bottom=0;right=0;align=left;spacingLeft=6;" parent="5-_W_V20jvPb3o29qMEB-359" vertex="1">
          <mxGeometry x="60" width="140" height="61" as="geometry">
            <mxRectangle width="140" height="61" as="alternateBounds" />
          </mxGeometry>
        </mxCell>
        <mxCell id="5-_W_V20jvPb3o29qMEB-362" value="Debit" style="shape=table;startSize=20;container=1;collapsible=1;childLayout=tableLayout;fixedRows=1;rowLines=0;fontStyle=0;align=center;resizeLast=1;fillColor=#666600;" parent="1" vertex="1">
          <mxGeometry x="2140" y="1530" width="200" height="101" as="geometry" />
        </mxCell>
        <mxCell id="5-_W_V20jvPb3o29qMEB-363" value="" style="shape=partialRectangle;collapsible=0;dropTarget=0;pointerEvents=0;fillColor=none;points=[[0,0.5],[1,0.5]];portConstraint=eastwest;top=0;left=0;right=0;bottom=1;" parent="5-_W_V20jvPb3o29qMEB-362" vertex="1">
          <mxGeometry y="20" width="200" height="20" as="geometry" />
        </mxCell>
        <mxCell id="5-_W_V20jvPb3o29qMEB-364" value="PK" style="shape=partialRectangle;overflow=hidden;connectable=0;fillColor=#636EFF;top=0;left=0;bottom=0;right=0;fontStyle=1;" parent="5-_W_V20jvPb3o29qMEB-363" vertex="1">
          <mxGeometry width="60" height="20" as="geometry">
            <mxRectangle width="60" height="20" as="alternateBounds" />
          </mxGeometry>
        </mxCell>
        <mxCell id="5-_W_V20jvPb3o29qMEB-365" value="DebitID" style="shape=partialRectangle;overflow=hidden;connectable=0;fillColor=#636EFF;top=0;left=0;bottom=0;right=0;align=left;spacingLeft=6;fontStyle=5;" parent="5-_W_V20jvPb3o29qMEB-363" vertex="1">
          <mxGeometry x="60" width="140" height="20" as="geometry">
            <mxRectangle width="140" height="20" as="alternateBounds" />
          </mxGeometry>
        </mxCell>
        <mxCell id="5-_W_V20jvPb3o29qMEB-366" value="" style="shape=partialRectangle;collapsible=0;dropTarget=0;pointerEvents=0;fillColor=none;points=[[0,0.5],[1,0.5]];portConstraint=eastwest;top=0;left=0;right=0;bottom=0;" parent="5-_W_V20jvPb3o29qMEB-362" vertex="1">
          <mxGeometry y="40" width="200" height="61" as="geometry" />
        </mxCell>
        <mxCell id="5-_W_V20jvPb3o29qMEB-367" value="Other &#xa;Attributes" style="shape=partialRectangle;overflow=hidden;connectable=0;fillColor=none;top=0;left=0;bottom=0;right=0;" parent="5-_W_V20jvPb3o29qMEB-366" vertex="1">
          <mxGeometry width="60" height="61" as="geometry">
            <mxRectangle width="60" height="61" as="alternateBounds" />
          </mxGeometry>
        </mxCell>
        <mxCell id="5-_W_V20jvPb3o29qMEB-368" value="- PIN Required" style="shape=partialRectangle;overflow=hidden;connectable=0;fillColor=none;top=0;left=0;bottom=0;right=0;align=left;spacingLeft=6;" parent="5-_W_V20jvPb3o29qMEB-366" vertex="1">
          <mxGeometry x="60" width="140" height="61" as="geometry">
            <mxRectangle width="140" height="61" as="alternateBounds" />
          </mxGeometry>
        </mxCell>
        <mxCell id="5-_W_V20jvPb3o29qMEB-369" value="d" style="ellipse;whiteSpace=wrap;html=1;aspect=fixed;" parent="1" vertex="1">
          <mxGeometry x="2120" y="1480" width="20" height="20" as="geometry" />
        </mxCell>
        <mxCell id="5-_W_V20jvPb3o29qMEB-370" value="" style="endArrow=none;html=1;rounded=0;exitX=0.799;exitY=-0.001;exitDx=0;exitDy=0;exitPerimeter=0;" parent="1" source="5-_W_V20jvPb3o29qMEB-355" edge="1">
          <mxGeometry width="50" height="50" relative="1" as="geometry">
            <mxPoint x="2070" y="1540" as="sourcePoint" />
            <mxPoint x="2120" y="1490" as="targetPoint" />
          </mxGeometry>
        </mxCell>
        <mxCell id="5-_W_V20jvPb3o29qMEB-371" value="" style="endArrow=none;html=1;rounded=0;entryX=0.2;entryY=-0.002;entryDx=0;entryDy=0;entryPerimeter=0;" parent="1" target="5-_W_V20jvPb3o29qMEB-362" edge="1">
          <mxGeometry width="50" height="50" relative="1" as="geometry">
            <mxPoint x="2140" y="1490" as="sourcePoint" />
            <mxPoint x="2190" y="1440" as="targetPoint" />
          </mxGeometry>
        </mxCell>
        <mxCell id="5-_W_V20jvPb3o29qMEB-372" value="" style="shape=link;html=1;rounded=0;exitX=0.497;exitY=1.051;exitDx=0;exitDy=0;exitPerimeter=0;width=-9.25925925925926;entryX=0.493;entryY=0.054;entryDx=0;entryDy=0;entryPerimeter=0;" parent="1" target="5-_W_V20jvPb3o29qMEB-369" edge="1">
          <mxGeometry width="100" relative="1" as="geometry">
            <mxPoint x="2129.77" y="1450" as="sourcePoint" />
            <mxPoint x="2129.71" y="1480" as="targetPoint" />
          </mxGeometry>
        </mxCell>
        <mxCell id="5-_W_V20jvPb3o29qMEB-373" value="Branch" style="shape=table;startSize=20;container=1;collapsible=1;childLayout=tableLayout;fixedRows=1;rowLines=0;fontStyle=0;align=center;resizeLast=1;fillColor=#00FF00;" parent="1" vertex="1">
          <mxGeometry x="790" y="630" width="200" height="160" as="geometry" />
        </mxCell>
        <mxCell id="5-_W_V20jvPb3o29qMEB-374" value="" style="shape=partialRectangle;collapsible=0;dropTarget=0;pointerEvents=0;fillColor=none;points=[[0,0.5],[1,0.5]];portConstraint=eastwest;top=0;left=0;right=0;bottom=1;" parent="5-_W_V20jvPb3o29qMEB-373" vertex="1">
          <mxGeometry y="20" width="200" height="20" as="geometry" />
        </mxCell>
        <mxCell id="5-_W_V20jvPb3o29qMEB-375" value="PK" style="shape=partialRectangle;overflow=hidden;connectable=0;fillColor=#636EFF;top=0;left=0;bottom=0;right=0;fontStyle=1;" parent="5-_W_V20jvPb3o29qMEB-374" vertex="1">
          <mxGeometry width="60" height="20" as="geometry">
            <mxRectangle width="60" height="20" as="alternateBounds" />
          </mxGeometry>
        </mxCell>
        <mxCell id="5-_W_V20jvPb3o29qMEB-376" value="BranchID" style="shape=partialRectangle;overflow=hidden;connectable=0;fillColor=#636EFF;top=0;left=0;bottom=0;right=0;align=left;spacingLeft=6;fontStyle=5;" parent="5-_W_V20jvPb3o29qMEB-374" vertex="1">
          <mxGeometry x="60" width="140" height="20" as="geometry">
            <mxRectangle width="140" height="20" as="alternateBounds" />
          </mxGeometry>
        </mxCell>
        <mxCell id="5-_W_V20jvPb3o29qMEB-377" value="" style="shape=partialRectangle;collapsible=0;dropTarget=0;pointerEvents=0;fillColor=none;points=[[0,0.5],[1,0.5]];portConstraint=eastwest;top=0;left=0;right=0;bottom=0;" parent="5-_W_V20jvPb3o29qMEB-373" vertex="1">
          <mxGeometry y="40" width="200" height="120" as="geometry" />
        </mxCell>
        <mxCell id="5-_W_V20jvPb3o29qMEB-378" value="Other &#xa;Attributes" style="shape=partialRectangle;overflow=hidden;connectable=0;fillColor=none;top=0;left=0;bottom=0;right=0;" parent="5-_W_V20jvPb3o29qMEB-377" vertex="1">
          <mxGeometry width="60" height="120" as="geometry">
            <mxRectangle width="60" height="120" as="alternateBounds" />
          </mxGeometry>
        </mxCell>
        <mxCell id="5-_W_V20jvPb3o29qMEB-379" value="- Name&#xa;- Street Name&#xa;- City&#xa;- State&#xa;- Country&#xa;- Email&#xa;- Phone Number" style="shape=partialRectangle;overflow=hidden;connectable=0;fillColor=none;top=0;left=0;bottom=0;right=0;align=left;spacingLeft=6;" parent="5-_W_V20jvPb3o29qMEB-377" vertex="1">
          <mxGeometry x="60" width="140" height="120" as="geometry">
            <mxRectangle width="140" height="120" as="alternateBounds" />
          </mxGeometry>
        </mxCell>
        <mxCell id="5-_W_V20jvPb3o29qMEB-380" value="" style="endArrow=none;html=1;rounded=0;entryX=0.998;entryY=0;entryDx=0;entryDy=0;entryPerimeter=0;exitX=0;exitY=0;exitDx=0;exitDy=0;exitPerimeter=0;" parent="5-_W_V20jvPb3o29qMEB-373" source="5-_W_V20jvPb3o29qMEB-377" target="5-_W_V20jvPb3o29qMEB-377" edge="1">
          <mxGeometry width="50" height="50" relative="1" as="geometry">
            <mxPoint y="108" as="sourcePoint" />
            <mxPoint x="240" y="100" as="targetPoint" />
          </mxGeometry>
        </mxCell>
        <mxCell id="5-_W_V20jvPb3o29qMEB-382" value="" style="fontSize=12;html=1;endArrow=ERoneToMany;startArrow=ERmandOne;rounded=0;jumpStyle=line;edgeStyle=elbowEdgeStyle;" parent="1" edge="1">
          <mxGeometry width="100" height="100" relative="1" as="geometry">
            <mxPoint x="790" y="680" as="sourcePoint" />
            <mxPoint x="710" y="1350" as="targetPoint" />
            <Array as="points">
              <mxPoint x="710" y="690" />
            </Array>
          </mxGeometry>
        </mxCell>
        <mxCell id="5-_W_V20jvPb3o29qMEB-383" value="" style="fontSize=12;html=1;endArrow=ERoneToMany;startArrow=ERzeroToMany;rounded=0;exitX=0;exitY=0.199;exitDx=0;exitDy=0;exitPerimeter=0;entryX=1.001;entryY=0.326;entryDx=0;entryDy=0;entryPerimeter=0;" parent="1" edge="1">
          <mxGeometry width="100" height="100" relative="1" as="geometry">
            <mxPoint x="1789.8" y="680.78" as="sourcePoint" />
            <mxPoint x="989.9999999999998" y="680" as="targetPoint" />
          </mxGeometry>
        </mxCell>
        <mxCell id="5-_W_V20jvPb3o29qMEB-385" value="" style="edgeStyle=elbowEdgeStyle;fontSize=12;html=1;endArrow=ERzeroToMany;startArrow=ERmandOne;rounded=0;elbow=vertical;exitX=0.4;exitY=0;exitDx=0;exitDy=0;exitPerimeter=0;" parent="1" source="5-_W_V20jvPb3o29qMEB-265" edge="1">
          <mxGeometry width="100" height="100" relative="1" as="geometry">
            <mxPoint x="750" y="1150" as="sourcePoint" />
            <mxPoint x="1230" y="920" as="targetPoint" />
            <Array as="points">
              <mxPoint x="750" y="920" />
            </Array>
          </mxGeometry>
        </mxCell>
        <mxCell id="5-_W_V20jvPb3o29qMEB-386" value="" style="edgeStyle=elbowEdgeStyle;fontSize=12;html=1;endArrow=ERzeroToMany;startArrow=ERmandOne;rounded=0;elbow=vertical;exitX=0.6;exitY=0.003;exitDx=0;exitDy=0;exitPerimeter=0;" parent="1" edge="1">
          <mxGeometry width="100" height="100" relative="1" as="geometry">
            <mxPoint x="1030" y="1350" as="sourcePoint" />
            <mxPoint x="1230" y="949.7" as="targetPoint" />
            <Array as="points">
              <mxPoint x="980" y="949.7" />
            </Array>
          </mxGeometry>
        </mxCell>
        <mxCell id="5-_W_V20jvPb3o29qMEB-387" value="" style="fontSize=12;html=1;endArrow=ERoneToMany;startArrow=ERmandOne;rounded=0;jumpStyle=line;edgeStyle=elbowEdgeStyle;exitX=0;exitY=0.2;exitDx=0;exitDy=0;exitPerimeter=0;" parent="1" source="5-_W_V20jvPb3o29qMEB-205" edge="1">
          <mxGeometry width="100" height="100" relative="1" as="geometry">
            <mxPoint x="1410" y="710" as="sourcePoint" />
            <mxPoint x="1330" y="870" as="targetPoint" />
            <Array as="points">
              <mxPoint x="1330" y="720" />
            </Array>
          </mxGeometry>
        </mxCell>
        <mxCell id="5-_W_V20jvPb3o29qMEB-389" value="&lt;b&gt;&lt;font style=&quot;font-size: 14px;&quot;&gt;Adepeju Awoyemi&lt;/font&gt;&lt;/b&gt;&lt;div&gt;&lt;b&gt;&lt;font size=&quot;3&quot;&gt;Assignment 2&lt;/font&gt;&lt;/b&gt;&lt;/div&gt;&lt;div&gt;&lt;b&gt;&lt;font size=&quot;3&quot;&gt;Car Rental EERD&lt;/font&gt;&lt;/b&gt;&lt;/div&gt;&lt;div&gt;&lt;b&gt;&lt;font size=&quot;3&quot;&gt;Professor Kamran Fayyaz&lt;/font&gt;&lt;/b&gt;&lt;/div&gt;&lt;div&gt;&lt;b&gt;&lt;font size=&quot;3&quot;&gt;07/18/2024&lt;/font&gt;&lt;/b&gt;&lt;/div&gt;" style="rounded=0;whiteSpace=wrap;html=1;fillColor=#97D077;" parent="1" vertex="1">
          <mxGeometry x="990" y="460" width="800" height="100" as="geometry" />
        </mxCell>
        <mxCell id="YJo4-S1H4zThEH04yzoZ-1" value="" style="fontSize=12;html=1;endArrow=ERoneToMany;startArrow=ERmandOne;rounded=0;jumpStyle=line;edgeStyle=elbowEdgeStyle;entryX=1;entryY=0.5;entryDx=0;entryDy=0;exitX=0.5;exitY=0;exitDx=0;exitDy=0;" edge="1" parent="1" source="5-_W_V20jvPb3o29qMEB-318" target="5-_W_V20jvPb3o29qMEB-176">
          <mxGeometry width="100" height="100" relative="1" as="geometry">
            <mxPoint x="1890" y="1100" as="sourcePoint" />
            <mxPoint x="1430" y="1170" as="targetPoint" />
            <Array as="points">
              <mxPoint x="1890" y="1000" />
            </Array>
          </mxGeometry>
        </mxCell>
        <mxCell id="YJo4-S1H4zThEH04yzoZ-3" value="" style="fontSize=12;html=1;endArrow=ERoneToMany;startArrow=ERmandOne;rounded=0;jumpStyle=line;edgeStyle=elbowEdgeStyle;" edge="1" parent="1">
          <mxGeometry width="100" height="100" relative="1" as="geometry">
            <mxPoint x="1570" y="1524.76" as="sourcePoint" />
            <mxPoint x="1450" y="1525" as="targetPoint" />
            <Array as="points" />
          </mxGeometry>
        </mxCell>
        <mxCell id="YJo4-S1H4zThEH04yzoZ-4" value="Rental" style="text;html=1;align=center;verticalAlign=middle;resizable=0;points=[];autosize=1;strokeColor=none;fillColor=none;" vertex="1" parent="1">
          <mxGeometry x="1340" y="1510" width="60" height="30" as="geometry" />
        </mxCell>
        <mxCell id="YJo4-S1H4zThEH04yzoZ-5" value="Payment" style="text;html=1;align=center;verticalAlign=middle;resizable=0;points=[];autosize=1;strokeColor=none;fillColor=none;" vertex="1" parent="1">
          <mxGeometry x="1615" y="1510" width="70" height="30" as="geometry" />
        </mxCell>
        <mxCell id="YJo4-S1H4zThEH04yzoZ-6" value="&lt;font style=&quot;font-size: 16px;&quot;&gt;&lt;b&gt;Cardinality:&lt;/b&gt;&amp;nbsp;Many to Many&lt;/font&gt;&lt;div&gt;&lt;span style=&quot;background-color: initial;&quot;&gt;&lt;font size=&quot;3&quot;&gt;&lt;br&gt;&lt;/font&gt;&lt;/span&gt;&lt;/div&gt;&lt;div&gt;&lt;font size=&quot;3&quot;&gt;&lt;span style=&quot;background-color: initial;&quot;&gt;&amp;nbsp;A branch can have many vehicles.&amp;nbsp;&lt;/span&gt;&lt;span style=&quot;background-color: initial;&quot;&gt;A vehicle can be associated with many branches (Pickup and drop-off. E.g.: Uhal trucks).&lt;/span&gt;&lt;br&gt;&lt;/font&gt;&lt;/div&gt;&lt;div&gt;&lt;font size=&quot;3&quot;&gt;&lt;br&gt;&lt;/font&gt;&lt;/div&gt;&lt;div&gt;&lt;font size=&quot;3&quot;&gt;A vehicle is not required to be at a branch if it is already rented out but a branch is required to rent a vehicle since the vehicle has to be picked up from a location.&lt;/font&gt;&lt;/div&gt;&lt;div&gt;&lt;font size=&quot;3&quot;&gt;&lt;br&gt;&lt;/font&gt;&lt;/div&gt;&lt;div&gt;&lt;font size=&quot;3&quot;&gt;&lt;b&gt;Business Rule&lt;/b&gt;: Multiple vehicles are associated with multiple branches for logistical purposes.&lt;/font&gt;&lt;/div&gt;" style="rounded=0;whiteSpace=wrap;html=1;fillColor=#D4E1F5;" vertex="1" parent="1">
          <mxGeometry x="2030" y="507.5" width="310" height="322.5" as="geometry" />
        </mxCell>
        <mxCell id="YJo4-S1H4zThEH04yzoZ-8" value="Branch" style="text;html=1;align=center;verticalAlign=middle;resizable=0;points=[];autosize=1;strokeColor=none;fillColor=none;" vertex="1" parent="1">
          <mxGeometry x="2050" y="475.5" width="60" height="30" as="geometry" />
        </mxCell>
        <mxCell id="YJo4-S1H4zThEH04yzoZ-9" value="Vehicle" style="text;html=1;align=center;verticalAlign=middle;resizable=0;points=[];autosize=1;strokeColor=none;fillColor=none;" vertex="1" parent="1">
          <mxGeometry x="2240" y="475.5" width="60" height="30" as="geometry" />
        </mxCell>
        <mxCell id="YJo4-S1H4zThEH04yzoZ-10" value="&lt;font style=&quot;font-size: 16px;&quot;&gt;&lt;b&gt;Cardinality:&lt;/b&gt;&amp;nbsp;One to Many&lt;/font&gt;&lt;div&gt;&lt;font style=&quot;font-size: 16px;&quot;&gt;&lt;br&gt;&lt;/font&gt;&lt;/div&gt;&lt;div&gt;&lt;font style=&quot;font-size: 16px;&quot;&gt;Many payments can be used to complete a rental.&amp;nbsp;&lt;/font&gt;&lt;/div&gt;&lt;div&gt;&lt;font size=&quot;3&quot;&gt;&lt;br&gt;&lt;/font&gt;&lt;/div&gt;&lt;div&gt;&lt;font size=&quot;3&quot;&gt;A payment is required to complete a rental and a rental requires a payment to complete the transaction.&lt;/font&gt;&lt;/div&gt;&lt;div&gt;&lt;font size=&quot;3&quot;&gt;&lt;br&gt;&lt;/font&gt;&lt;/div&gt;&lt;div&gt;&lt;font size=&quot;3&quot;&gt;&lt;b&gt;Business Rule:&lt;/b&gt;&amp;nbsp;Rentals can be paid in multiple installments or with different methods but each payment is linked to a specific rental.&lt;/font&gt;&lt;/div&gt;" style="rounded=0;whiteSpace=wrap;html=1;fillColor=#D4E1F5;" vertex="1" parent="1">
          <mxGeometry x="1250" y="1550.5" width="540" height="259.5" as="geometry" />
        </mxCell>
        <mxCell id="YJo4-S1H4zThEH04yzoZ-11" value="&lt;font style=&quot;font-size: 16px;&quot;&gt;&lt;b&gt;Cardinality&lt;/b&gt;: One to Many&lt;/font&gt;&lt;div&gt;&lt;font size=&quot;3&quot;&gt;&lt;br&gt;&lt;/font&gt;&lt;/div&gt;&lt;div&gt;&lt;font size=&quot;3&quot;&gt;A branch can have many employees. Many employees can work at a branch&lt;/font&gt;&lt;/div&gt;&lt;div&gt;&lt;font size=&quot;3&quot;&gt;&lt;br&gt;&lt;/font&gt;&lt;/div&gt;&lt;div&gt;&lt;font size=&quot;3&quot;&gt;An employee is required to work at a branch and a branch is also required for an employee to work.&lt;/font&gt;&lt;/div&gt;&lt;div&gt;&lt;font size=&quot;3&quot;&gt;&lt;br&gt;&lt;/font&gt;&lt;/div&gt;&lt;div&gt;&lt;font size=&quot;3&quot;&gt;&lt;b&gt;Business rule:&lt;/b&gt;&amp;nbsp;Employees are assigned to one branch but a branch can have many employees.&lt;/font&gt;&lt;/div&gt;&lt;div&gt;&lt;br&gt;&lt;/div&gt;" style="rounded=0;whiteSpace=wrap;html=1;fillColor=#D4E1F5;" vertex="1" parent="1">
          <mxGeometry x="210" y="507.5" width="470" height="259.5" as="geometry" />
        </mxCell>
        <mxCell id="YJo4-S1H4zThEH04yzoZ-12" value="&lt;font style=&quot;font-size: 16px;&quot;&gt;&lt;b&gt;Cardinality:&lt;/b&gt;&amp;nbsp;One to Many&lt;/font&gt;&lt;div&gt;&lt;font style=&quot;font-size: 16px;&quot;&gt;&lt;br&gt;&lt;/font&gt;&lt;/div&gt;&lt;div&gt;&lt;font style=&quot;font-size: 16px;&quot;&gt;Many rentals can be completed by an employee at a given period.&amp;nbsp;&lt;/font&gt;&lt;/div&gt;&lt;div&gt;&lt;font size=&quot;3&quot;&gt;&lt;br&gt;&lt;/font&gt;&lt;/div&gt;&lt;div&gt;&lt;font size=&quot;3&quot;&gt;An employee is required to complete a rental and a rental is optional to be completed by an employee if the employee is just a regular staff (E.g. cleaning or maintenance staff).&lt;/font&gt;&lt;/div&gt;&lt;div&gt;&lt;font size=&quot;3&quot;&gt;&lt;br&gt;&lt;/font&gt;&lt;/div&gt;&lt;div&gt;&lt;font size=&quot;3&quot;&gt;&lt;b&gt;Business Rule:&lt;/b&gt;&amp;nbsp;An employee (rental agent) can complete many rentals and have to be present for all rentals.&lt;/font&gt;&lt;/div&gt;" style="rounded=0;whiteSpace=wrap;html=1;fillColor=#D4E1F5;" vertex="1" parent="1">
          <mxGeometry x="210" y="930.25" width="470" height="259.5" as="geometry" />
        </mxCell>
        <mxCell id="YJo4-S1H4zThEH04yzoZ-13" value="&lt;font style=&quot;font-size: 18px;&quot;&gt;&lt;b&gt;Cardinality:&lt;/b&gt;&amp;nbsp;One to Many&lt;/font&gt;&lt;div&gt;&lt;font size=&quot;3&quot;&gt;&lt;br&gt;&lt;/font&gt;&lt;/div&gt;&lt;div&gt;&lt;font size=&quot;3&quot;&gt;Many rental transactions can be completed by a customer at a given time.&amp;nbsp;&lt;/font&gt;&lt;/div&gt;&lt;div&gt;&lt;font size=&quot;3&quot;&gt;&lt;br&gt;&lt;/font&gt;&lt;/div&gt;&lt;div&gt;&lt;font size=&quot;3&quot;&gt;And, a customer is required to complete a rental. A rental is optional should the customer not like the rental vehicle.&lt;/font&gt;&lt;/div&gt;&lt;div&gt;&lt;font size=&quot;3&quot;&gt;&lt;br&gt;&lt;/font&gt;&lt;/div&gt;&lt;div&gt;&lt;font size=&quot;3&quot;&gt;&lt;b&gt;Business Rule:&lt;/b&gt;&amp;nbsp;Customers can rent multiple vehicles but each rental is linked to only one customer&lt;/font&gt;&lt;/div&gt;" style="rounded=0;whiteSpace=wrap;html=1;fillColor=#D4E1F5;" vertex="1" parent="1">
          <mxGeometry x="210" y="1342" width="300" height="468" as="geometry" />
        </mxCell>
        <mxCell id="YJo4-S1H4zThEH04yzoZ-14" value="" style="fontSize=12;html=1;endArrow=ERoneToMany;startArrow=ERmandOne;rounded=0;jumpStyle=line;edgeStyle=elbowEdgeStyle;" edge="1" parent="1">
          <mxGeometry width="100" height="100" relative="1" as="geometry">
            <mxPoint x="390" y="1324.62" as="sourcePoint" />
            <mxPoint x="310" y="1325" as="targetPoint" />
            <Array as="points" />
          </mxGeometry>
        </mxCell>
        <mxCell id="YJo4-S1H4zThEH04yzoZ-15" value="Rental" style="text;html=1;align=center;verticalAlign=middle;resizable=0;points=[];autosize=1;strokeColor=none;fillColor=none;" vertex="1" parent="1">
          <mxGeometry x="220" y="1310" width="60" height="30" as="geometry" />
        </mxCell>
        <mxCell id="YJo4-S1H4zThEH04yzoZ-16" value="Customer" style="text;html=1;align=center;verticalAlign=middle;resizable=0;points=[];autosize=1;strokeColor=none;fillColor=none;" vertex="1" parent="1">
          <mxGeometry x="415" y="1310" width="80" height="30" as="geometry" />
        </mxCell>
        <mxCell id="YJo4-S1H4zThEH04yzoZ-17" value="&lt;font style=&quot;&quot;&gt;&lt;b style=&quot;&quot;&gt;&lt;font style=&quot;font-size: 16px;&quot;&gt;Cardinality&lt;/font&gt;&lt;/b&gt;&lt;span style=&quot;font-size: 14px;&quot;&gt;: One to Many&lt;/span&gt;&lt;/font&gt;&lt;div&gt;&lt;font style=&quot;font-size: 14px;&quot;&gt;&lt;br&gt;&lt;/font&gt;&lt;/div&gt;&lt;div&gt;&lt;font style=&quot;font-size: 14px;&quot;&gt;There can be many rentals for a vehicle but a vehicle can only have one rental at per transaction.&lt;br&gt;&lt;br&gt;A rental is required to acquire a vehicle and a vehicle is also required to complete a rental.&lt;/font&gt;&lt;/div&gt;&lt;div&gt;&lt;font style=&quot;font-size: 14px;&quot;&gt;&lt;br&gt;&lt;/font&gt;&lt;/div&gt;&lt;div&gt;&lt;font style=&quot;&quot;&gt;&lt;b style=&quot;&quot;&gt;&lt;font size=&quot;3&quot;&gt;Business Rule&lt;/font&gt;&lt;span style=&quot;font-size: 14px;&quot;&gt;:&lt;/span&gt;&lt;/b&gt;&lt;span style=&quot;font-size: 14px;&quot;&gt;&amp;nbsp;A vehicle can be rented multiple times but each rental involves only one vehicle.&lt;/span&gt;&lt;/font&gt;&lt;/div&gt;" style="rounded=0;whiteSpace=wrap;html=1;fillColor=#D4E1F5;" vertex="1" parent="1">
          <mxGeometry x="2030" y="1029" width="310" height="290" as="geometry" />
        </mxCell>
        <mxCell id="YJo4-S1H4zThEH04yzoZ-18" value="" style="rounded=0;whiteSpace=wrap;html=1;" vertex="1" parent="1">
          <mxGeometry x="210" y="1860" width="2130" height="10" as="geometry" />
        </mxCell>
        <mxCell id="YJo4-S1H4zThEH04yzoZ-19" value="" style="fontSize=12;html=1;endArrow=ERoneToMany;startArrow=ERmandOne;rounded=0;jumpStyle=line;edgeStyle=elbowEdgeStyle;" edge="1" parent="1">
          <mxGeometry width="100" height="100" relative="1" as="geometry">
            <mxPoint x="2230" y="1002.4200000000001" as="sourcePoint" />
            <mxPoint x="2150" y="1002.23" as="targetPoint" />
            <Array as="points" />
          </mxGeometry>
        </mxCell>
        <mxCell id="YJo4-S1H4zThEH04yzoZ-20" value="Rental" style="text;html=1;align=center;verticalAlign=middle;resizable=0;points=[];autosize=1;strokeColor=none;fillColor=none;" vertex="1" parent="1">
          <mxGeometry x="2050" y="988" width="60" height="30" as="geometry" />
        </mxCell>
        <mxCell id="YJo4-S1H4zThEH04yzoZ-21" value="Vehicle" style="text;html=1;align=center;verticalAlign=middle;resizable=0;points=[];autosize=1;strokeColor=none;fillColor=none;" vertex="1" parent="1">
          <mxGeometry x="2250" y="988" width="60" height="30" as="geometry" />
        </mxCell>
        <mxCell id="YJo4-S1H4zThEH04yzoZ-22" value="" style="fontSize=12;html=1;endArrow=ERoneToMany;startArrow=ERzeroToMany;rounded=0;" edge="1" parent="1">
          <mxGeometry width="100" height="100" relative="1" as="geometry">
            <mxPoint x="2219.8" y="490.21000000000004" as="sourcePoint" />
            <mxPoint x="2130" y="490.5" as="targetPoint" />
          </mxGeometry>
        </mxCell>
        <mxCell id="YJo4-S1H4zThEH04yzoZ-25" value="Branch" style="text;html=1;align=center;verticalAlign=middle;resizable=0;points=[];autosize=1;strokeColor=none;fillColor=none;" vertex="1" parent="1">
          <mxGeometry x="290" y="468" width="60" height="30" as="geometry" />
        </mxCell>
        <mxCell id="YJo4-S1H4zThEH04yzoZ-26" value="Employee" style="text;html=1;align=center;verticalAlign=middle;resizable=0;points=[];autosize=1;strokeColor=none;fillColor=none;" vertex="1" parent="1">
          <mxGeometry x="520" y="468" width="80" height="30" as="geometry" />
        </mxCell>
        <mxCell id="YJo4-S1H4zThEH04yzoZ-27" value="" style="fontSize=12;html=1;endArrow=ERoneToMany;startArrow=ERmandOne;rounded=0;jumpStyle=line;edgeStyle=elbowEdgeStyle;" edge="1" parent="1">
          <mxGeometry width="100" height="100" relative="1" as="geometry">
            <mxPoint x="500" y="482.72" as="sourcePoint" />
            <mxPoint x="390" y="482.72" as="targetPoint" />
            <Array as="points">
              <mxPoint x="440" y="495.05" />
            </Array>
          </mxGeometry>
        </mxCell>
        <mxCell id="YJo4-S1H4zThEH04yzoZ-28" value="Rental" style="text;html=1;align=center;verticalAlign=middle;resizable=0;points=[];autosize=1;strokeColor=none;fillColor=none;" vertex="1" parent="1">
          <mxGeometry x="260" y="888" width="60" height="30" as="geometry" />
        </mxCell>
        <mxCell id="YJo4-S1H4zThEH04yzoZ-29" value="Employee" style="text;html=1;align=center;verticalAlign=middle;resizable=0;points=[];autosize=1;strokeColor=none;fillColor=none;" vertex="1" parent="1">
          <mxGeometry x="540" y="888" width="80" height="30" as="geometry" />
        </mxCell>
        <mxCell id="YJo4-S1H4zThEH04yzoZ-31" value="" style="fontSize=12;html=1;endArrow=ERzeroToMany;startArrow=ERmandOne;rounded=0;" edge="1" parent="1">
          <mxGeometry width="100" height="100" relative="1" as="geometry">
            <mxPoint x="490" y="903" as="sourcePoint" />
            <mxPoint x="370" y="903.33" as="targetPoint" />
          </mxGeometry>
        </mxCell>
        <mxCell id="YJo4-S1H4zThEH04yzoZ-32" value="" style="rounded=0;whiteSpace=wrap;html=1;direction=south;" vertex="1" parent="1">
          <mxGeometry x="2400" y="460" width="10" height="1410" as="geometry" />
        </mxCell>
        <mxCell id="YJo4-S1H4zThEH04yzoZ-33" value="" style="rounded=0;whiteSpace=wrap;html=1;direction=south;" vertex="1" parent="1">
          <mxGeometry x="140" y="460" width="10" height="1410" as="geometry" />
        </mxCell>
      </root>
    </mxGraphModel>
  </diagram>
</mxfile>
